<?xml version="1.0" encoding="UTF-8" standalone="no"?>
<!-- Created with Inkscape (http://www.inkscape.org/) -->

<svg
   xmlns:dc="http://purl.org/dc/elements/1.1/"
   xmlns:cc="http://creativecommons.org/ns#"
   xmlns:rdf="http://www.w3.org/1999/02/22-rdf-syntax-ns#"
   xmlns:svg="http://www.w3.org/2000/svg"
   xmlns="http://www.w3.org/2000/svg"
   xmlns:sodipodi="http://sodipodi.sourceforge.net/DTD/sodipodi-0.dtd"
   xmlns:inkscape="http://www.inkscape.org/namespaces/inkscape"
   version="1.1"
   id="svg2"
   xml:space="preserve"
   width="275.33334"
   height="85.333336"
   viewBox="0 0 275.33334 85.333336"
   sodipodi:docname="webhead.svg"
   inkscape:version="0.92.1 r15371"><title
     id="title3788">WebHedder</title><metadata
     id="metadata8"><rdf:RDF><cc:Work
         rdf:about=""><dc:format>image/svg+xml</dc:format><dc:type
           rdf:resource="http://purl.org/dc/dcmitype/StillImage" /><dc:title>WebHedder</dc:title></cc:Work></rdf:RDF></metadata><defs
     id="defs6"><clipPath
       clipPathUnits="userSpaceOnUse"
       id="clipPath18"><path
         d="M 0,64 H 206.5 V 0 H 0 Z"
         id="path16"
         inkscape:connector-curvature="0" /></clipPath><clipPath
       clipPathUnits="userSpaceOnUse"
       id="clipPath42"><path
         d="M 0,64 H 206.5 V 0 H 0 Z"
         id="path40"
         inkscape:connector-curvature="0" /></clipPath><clipPath
       clipPathUnits="userSpaceOnUse"
       id="clipPath54"><path
         d="M 0,64 H 206.5 V 0 H 0 Z"
         id="path52"
         inkscape:connector-curvature="0" /></clipPath><clipPath
       clipPathUnits="userSpaceOnUse"
       id="clipPath64"><path
         d="M -113.257,115.243 H 113.257 V -115.242 H -113.257 Z"
         id="path62"
         inkscape:connector-curvature="0" /></clipPath></defs><sodipodi:namedview
     pagecolor="#ffffff"
     bordercolor="#666666"
     borderopacity="1"
     objecttolerance="10"
     gridtolerance="10"
     guidetolerance="10"
     inkscape:pageopacity="0"
     inkscape:pageshadow="2"
     inkscape:window-width="1366"
     inkscape:window-height="705"
     id="namedview4"
     showgrid="false"
     inkscape:zoom="2.32"
     inkscape:cx="149.92251"
     inkscape:cy="62.465062"
     inkscape:window-x="-8"
     inkscape:window-y="-8"
     inkscape:window-maximized="1"
     inkscape:current-layer="g10" /><g
     id="g10"
     inkscape:groupmode="layer"
     inkscape:label="webhead02"
     transform="matrix(1.3333333,0,0,-1.3333333,0,85.333333)"><g
       id="g12"
       style="fill:#e5e5e6;fill-opacity:1"
       sodipodi:insensitive="true"
       inkscape:label="#Triquetra"><g
         id="g14"
         clip-path="url(#clipPath18)"
         style="fill:#e5e5e6;fill-opacity:1"><g
           id="g20"
           transform="translate(24.8877,40.4976)"
           style="fill:#e5e5e6;fill-opacity:1"><path
             d="m 0,0 c 2.104,0.244 3.303,0.89 5.198,0.965 1.284,4.892 4.579,8.388 6.059,8.261 4.451,-3.179 1.396,-15.367 -2,-19.254 1.227,-1.264 1.684,-2.662 3.405,-4.439 3.697,3.406 6.102,9.854 5.966,16.179 C 18.492,8.015 14.67,14.396 12.582,14.983 10.509,15.565 0.968,9.274 0,0"
             style="fill:#e5e5e6;fill-opacity:1;fill-rule:nonzero;stroke:none"
             id="path22"
             inkscape:connector-curvature="0" /></g><g
           id="g24"
           transform="translate(44.6792,28.6289)"
           style="fill:#e5e5e6;fill-opacity:1"><path
             d="M 0,0 C -1.024,-1.854 -1.195,-3.205 -2.236,-4.791 1,-8.679 1.93,-13.392 0.967,-14.523 c -5.174,-1.774 -13.317,7.794 -14.508,12.816 -1.775,-0.134 -3.154,-0.04 -5.591,-0.19 0.623,-4.988 4.474,-10.693 9.7,-14.258 5.209,-3.552 12.622,-4.15 14.314,-2.792 C 6.561,-17.598 6.985,-6.176 0,0"
             style="fill:#e5e5e6;fill-opacity:1;fill-rule:nonzero;stroke:none"
             id="path26"
             inkscape:connector-curvature="0" /></g><g
           id="g28"
           transform="translate(23.9746,18.582)"
           style="fill:#e5e5e6;fill-opacity:1"><path
             d="m 0,0 c -1.167,1.768 -2.285,2.546 -3.208,4.204 -4.945,-1.064 -9.551,0.298 -10.106,1.675 0.827,5.407 13.082,8.184 18.082,6.909 0.574,1.665 1.614,2.705 2.425,5.042 C 2.484,19.591 -4.356,18.826 -9.937,15.849 -15.5,12.882 -19.469,6.591 -19.05,4.462 -18.634,2.351 -8.712,-3.324 0,0"
             style="fill:#e5e5e6;fill-opacity:1;fill-rule:nonzero;stroke:none"
             id="path30"
             inkscape:connector-curvature="0" /></g></g></g><g
       aria-label="capital city"
       transform="matrix(1,0,0,-1,97.4238,48.9258)"
       style="font-style:italic;font-variant:normal;font-weight:bold;font-stretch:normal;font-size:12.81470013px;font-family:'Merriweather Bold';-inkscape-font-specification:Merriweather-BoldItalic;writing-mode:lr-tb;fill:#e6e6e6;fill-opacity:1;fill-rule:nonzero;stroke:none"
       id="text34"
       sodipodi:insensitive="true"
       inkscape:label="#CapitalCity"><path
         d="m 0.41923091,-2.8032157 q 0,-1.0699774 0.44425963,-2.1024117 0.45051676,-1.0324343 1.33277886,-1.7019524 0.8822621,-0.669518 2.1086689,-0.669518 0.3754307,0 0.7946616,0.068829 0.4192309,0.068829 0.7070611,0.1939725 L 5.3561442,-5.349887 Q 5.3436302,-5.362401 5.174686,-5.374916 5.0495425,-5.38743 5.0432853,-5.393688 4.6866262,-5.8129189 4.4113103,-6.063206 4.1422517,-6.3197503 3.9232505,-6.3197503 q -0.4630312,0 -0.8634906,0.4129738 -0.3942022,0.4067165 -0.6319749,1.163835 -0.2377728,0.7571185 -0.2377728,1.7520098 0,1.0824918 0.2940874,1.5768088 0.2940873,0.49431706 0.8822621,0.49431706 0.5005742,0 0.8572333,-0.18145816 0.3566591,-0.1877153 0.7696329,-0.5756603 l 0.3316304,0.5819175 q -0.1939725,0.27531581 -0.5443745,0.55688881 -0.3504019,0.27531582 -0.8697477,0.46928833 -0.5193457,0.19397252 -1.1450635,0.19397252 -0.7320898,0 -1.2576928,-0.33788761 -0.52560289,-0.3378876 -0.80717589,-0.99489125 -0.281573,-0.6570037 -0.281573,-1.5955797 z"
         style="font-style:italic;font-variant:normal;font-weight:bold;font-stretch:normal;font-family:Merriweather;-inkscape-font-specification:'Merriweather Bold Italic'"
         id="path3765"
         inkscape:connector-curvature="0" /><path
         d="m 11.701613,-7.2770978 q 0.319116,0 0.694547,0.075086 0.375431,0.068829 0.68829,0.1689438 l 0.857233,-0.24403 -0.813433,5.9693476 q -0.0063,0.0438 -0.0063,0.1251436 0,0.175201 0.06257,0.26280146 0.06257,0.0876005 0.162686,0.0876005 0.206487,0 0.569403,-0.28783016 l 0.187716,0.40045936 q -0.0876,0.13765791 -0.312859,0.3378876 -0.219001,0.19397252 -0.556889,0.35040196 -0.337888,0.15642945 -0.725833,0.15642945 -0.450516,0 -0.707061,-0.21274405 -0.256544,-0.21900122 -0.237773,-0.63197496 l -0.05006,-0.0813433 q -0.375431,0.40671656 -0.86349,0.66951803 -0.481803,0.25654429 -1.0449492,0.25654429 -1.0637202,0 -1.5768088,-0.73208981 -0.5130886,-0.73834697 -0.5130886,-1.93346797 0,-1.1450635 0.4943171,-2.2400696 0.5005742,-1.0950062 1.4516652,-1.7958101 0.9510913,-0.7008039 2.2400693,-0.7008039 z m 0.438003,0.913548 q -0.256544,-0.0876 -0.606946,-0.0876 -0.769633,0 -1.276465,0.5881747 -0.5005739,0.5819175 -0.7320895,1.4579224 -0.2315156,0.8697477 -0.2315156,1.758267 0,0.844719 0.2315156,1.3077502 0.2315156,0.46303111 0.6757755,0.46303111 0.337887,0 0.675775,-0.22525841 0.344145,-0.2252584 0.638232,-0.5694032 z"
         style="font-style:italic;font-variant:normal;font-weight:bold;font-stretch:normal;font-family:Merriweather;-inkscape-font-specification:'Merriweather Bold Italic'"
         id="path3767"
         inkscape:connector-curvature="0" /><path
         d="m 17.651508,3.2537325 h -1.63938 l 1.257693,-9.3294521 -0.675776,-0.3441448 0.106372,-0.5318601 2.046098,-0.3253733 0.312858,0.1501723 -0.07509,0.6507465 q 0.331631,-0.3566592 0.782148,-0.5756604 0.456774,-0.2252584 1.007405,-0.2252584 1.06372,0 1.608095,0.7195755 0.550632,0.7195754 0.550632,1.9897825 0,1.1763494 -0.513089,2.2650984 -0.506831,1.0824917 -1.445408,1.75826693 -0.938577,0.66951803 -2.158726,0.66951803 -0.312859,0 -0.719576,-0.07508614 z m 0.569404,-4.08593715 q 0.294087,0.13765791 0.769633,0.13765791 0.732089,0 1.220149,-0.56940316 0.48806,-0.5694032 0.713318,-1.4454081 0.231516,-0.8822621 0.231516,-1.8145815 0,-0.7884044 -0.250287,-1.26395 -0.250287,-0.4818027 -0.713318,-0.4818027 -0.387945,0 -0.725833,0.2377728 -0.337888,0.2315156 -0.600689,0.5944319 z"
         style="font-style:italic;font-variant:normal;font-weight:bold;font-stretch:normal;font-family:Merriweather;-inkscape-font-specification:'Merriweather Bold Italic'"
         id="path3769"
         inkscape:connector-curvature="0" /><path
         d="m 25.347097,-6.4198644 0.100115,-0.5318601 2.233812,-0.3253733 0.331631,0.1501723 -0.832205,5.8191753 q -0.01251,0.1251436 -0.01251,0.175201 0,0.30034455 0.193972,0.30034455 0.106372,0 0.24403,-0.0750861 0.143915,-0.0813433 0.375431,-0.27531585 l 0.181458,0.40671658 q -0.106372,0.15017227 -0.337888,0.35665914 -0.225258,0.20648686 -0.588174,0.37543067 -0.35666,0.1689438 -0.782148,0.1689438 -0.506831,0 -0.77589,-0.19397252 -0.269058,-0.20022969 -0.269058,-0.57566035 0,-0.0750861 0.0063,-0.11888638 0.0876,-0.71331834 0.356659,-2.57795724 l 0.381688,-2.7156152 z m 1.051206,-2.9784166 q 0,-0.3003446 0.143915,-0.5506317 0.143915,-0.2565443 0.394202,-0.4067163 0.250287,-0.150173 0.550632,-0.150173 0.275315,0 0.48806,0.118887 0.212744,0.118886 0.325373,0.319116 0.118886,0.1939724 0.118886,0.4192308 0,0.3128589 -0.137658,0.5756604 -0.1314,0.2565443 -0.394202,0.4129737 -0.256544,0.1501723 -0.606946,0.1501723 -0.231516,0 -0.438003,-0.1251436 -0.200229,-0.1251435 -0.325373,-0.3316304 -0.118886,-0.2064868 -0.118886,-0.4317452 z"
         style="font-style:italic;font-variant:normal;font-weight:bold;font-stretch:normal;font-family:Merriweather;-inkscape-font-specification:'Merriweather Bold Italic'"
         id="path3771"
         inkscape:connector-curvature="0" /><path
         d="m 31.398788,-6.2822065 h -0.750861 l 0.143915,-0.6194606 0.763376,-0.2940874 q 0.225258,-0.212744 0.469288,-0.669518 0.24403,-0.456774 0.463031,-0.9948913 h 0.919805 l -0.206486,1.6331234 h 1.451665 l -0.137658,0.9448339 h -1.432894 l -0.519346,3.8419072 q -0.100114,0.7008039 -0.100114,0.9761197 0,0.3003445 0.106372,0.4192309 0.106372,0.11888639 0.381688,0.11888639 0.244029,0 0.569403,-0.12514359 0.33163,-0.1251435 0.550631,-0.3003445 l 0.137658,0.49431704 q -0.181458,0.21900122 -0.525603,0.4505168 -0.344144,0.2252584 -0.807176,0.38168785 -0.456774,0.15017227 -0.957348,0.15017227 -0.519346,0 -0.850976,-0.26280147 -0.33163,-0.26280147 -0.33163,-0.85723336 0,-0.22525843 0.1314,-1.20137813 z"
         style="font-style:italic;font-variant:normal;font-weight:bold;font-stretch:normal;font-family:Merriweather;-inkscape-font-specification:'Merriweather Bold Italic'"
         id="path3773"
         inkscape:connector-curvature="0" /><path
         d="m 40.471898,-7.2770978 q 0.319116,0 0.694546,0.075086 0.375431,0.068829 0.68829,0.1689438 l 0.857233,-0.24403 -0.813433,5.9693476 q -0.0063,0.0438 -0.0063,0.1251436 0,0.175201 0.06257,0.26280146 0.06257,0.0876005 0.162686,0.0876005 0.206487,0 0.569404,-0.28783016 l 0.187715,0.40045936 q -0.0876,0.13765791 -0.312859,0.3378876 -0.219001,0.19397252 -0.556889,0.35040196 -0.337887,0.15642945 -0.725833,0.15642945 -0.450516,0 -0.707061,-0.21274405 -0.256544,-0.21900122 -0.237772,-0.63197496 l -0.05006,-0.0813433 q -0.37543,0.40671656 -0.86349,0.66951803 -0.481803,0.25654429 -1.044949,0.25654429 -1.06372,0 -1.576809,-0.73208981 -0.513088,-0.73834697 -0.513088,-1.93346797 0,-1.1450635 0.494317,-2.2400696 0.500574,-1.0950062 1.451665,-1.7958101 0.951091,-0.7008039 2.24007,-0.7008039 z m 0.438002,0.913548 q -0.256544,-0.0876 -0.606946,-0.0876 -0.769633,0 -1.276465,0.5881747 -0.500574,0.5819175 -0.732089,1.4579224 -0.231516,0.8697477 -0.231516,1.758267 0,0.844719 0.231516,1.3077502 0.231515,0.46303111 0.675775,0.46303111 0.337887,0 0.675775,-0.22525841 0.344145,-0.2252584 0.638232,-0.5694032 z"
         style="font-style:italic;font-variant:normal;font-weight:bold;font-stretch:normal;font-family:Merriweather;-inkscape-font-specification:'Merriweather Bold Italic'"
         id="path3775"
         inkscape:connector-curvature="0" /><path
         d="m 46.446148,-9.2731375 -0.800919,-0.2690586 0.125144,-0.5193459 2.146212,-0.262801 0.312859,0.168943 -1.201378,8.8476498 q -0.01252,0.062572 -0.01252,0.175201 0,0.30034455 0.193973,0.30034455 0.100115,0 0.237773,-0.068829 0.137658,-0.0750861 0.381688,-0.27531575 l 0.181458,0.4004593 q -0.100115,0.14391509 -0.325374,0.35040196 -0.219001,0.20648687 -0.569403,0.38168785 -0.344145,0.1689438 -0.750861,0.1689438 -0.481803,0 -0.77589,-0.20022969 -0.28783,-0.20648687 -0.294088,-0.64448932 0,-0.18771533 0.0438,-0.4818026 z"
         style="font-style:italic;font-variant:normal;font-weight:bold;font-stretch:normal;font-family:Merriweather;-inkscape-font-specification:'Merriweather Bold Italic'"
         id="path3777"
         inkscape:connector-curvature="0" /><path
         d="m 54.767654,-2.8032157 q 0,-1.0699774 0.44426,-2.1024117 0.450516,-1.0324343 1.332778,-1.7019524 0.882262,-0.669518 2.108669,-0.669518 0.375431,0 0.794662,0.068829 0.419231,0.068829 0.707061,0.1939725 l -0.450517,1.6644093 q -0.01251,-0.012514 -0.181458,-0.025029 -0.125144,-0.012514 -0.131401,-0.018772 -0.356659,-0.4192309 -0.631975,-0.669518 -0.269058,-0.2565443 -0.48806,-0.2565443 -0.463031,0 -0.86349,0.4129738 -0.394202,0.4067165 -0.631975,1.163835 -0.237773,0.7571185 -0.237773,1.7520098 0,1.0824918 0.294088,1.5768088 0.294087,0.49431706 0.882262,0.49431706 0.500574,0 0.857233,-0.18145816 0.356659,-0.1877153 0.769633,-0.5756603 l 0.33163,0.5819175 q -0.193972,0.27531581 -0.544374,0.55688881 -0.350402,0.27531582 -0.869748,0.46928833 -0.519346,0.19397252 -1.145063,0.19397252 -0.73209,0 -1.257693,-0.33788761 Q 55.3308,-0.55063165 55.049227,-1.2076353 54.767654,-1.864639 54.767654,-2.8032157 Z"
         style="font-style:italic;font-variant:normal;font-weight:bold;font-stretch:normal;font-family:Merriweather;-inkscape-font-specification:'Merriweather Bold Italic'"
         id="path3779"
         inkscape:connector-curvature="0" /><path
         d="m 62.298284,-6.4198644 0.100115,-0.5318601 2.233812,-0.3253733 0.331631,0.1501723 -0.832205,5.8191753 q -0.01251,0.1251436 -0.01251,0.175201 0,0.30034455 0.193972,0.30034455 0.106372,0 0.24403,-0.0750861 0.143915,-0.0813433 0.375431,-0.27531585 l 0.181458,0.40671658 q -0.106372,0.15017227 -0.337888,0.35665914 -0.225258,0.20648686 -0.588174,0.37543067 -0.356659,0.1689438 -0.782148,0.1689438 -0.506831,0 -0.77589,-0.19397252 -0.269058,-0.20022969 -0.269058,-0.57566035 0,-0.0750861 0.0063,-0.11888638 0.0876,-0.71331834 0.356659,-2.57795724 L 63.10546,-6.0569481 Z M 63.34949,-9.398281 q 0,-0.3003446 0.143915,-0.5506317 0.143915,-0.2565443 0.394202,-0.4067163 0.250287,-0.150173 0.550632,-0.150173 0.275316,0 0.48806,0.118887 0.212744,0.118886 0.325373,0.319116 0.118886,0.1939724 0.118886,0.4192308 0,0.3128589 -0.137658,0.5756604 -0.1314,0.2565443 -0.394202,0.4129737 -0.256544,0.1501723 -0.606946,0.1501723 -0.231516,0 -0.438003,-0.1251436 Q 63.59352,-8.7600489 63.468376,-8.9665358 63.34949,-9.1730226 63.34949,-9.398281 Z"
         style="font-style:italic;font-variant:normal;font-weight:bold;font-stretch:normal;font-family:Merriweather;-inkscape-font-specification:'Merriweather Bold Italic'"
         id="path3781"
         inkscape:connector-curvature="0" /><path
         d="m 68.349977,-6.2822065 h -0.750861 l 0.143915,-0.6194606 0.763376,-0.2940874 q 0.225258,-0.212744 0.469288,-0.669518 0.24403,-0.456774 0.463031,-0.9948913 h 0.919806 l -0.206487,1.6331234 h 1.451665 l -0.137658,0.9448339 h -1.432894 l -0.519345,3.8419072 q -0.100115,0.7008039 -0.100115,0.9761197 0,0.3003445 0.106372,0.4192309 0.106372,0.11888639 0.381688,0.11888639 0.244029,0 0.569403,-0.12514359 0.33163,-0.1251435 0.550631,-0.3003445 l 0.137658,0.49431704 q -0.181458,0.21900122 -0.525603,0.4505168 -0.344144,0.2252584 -0.807176,0.38168785 -0.456774,0.15017227 -0.957348,0.15017227 -0.519346,0 -0.850976,-0.26280147 -0.33163,-0.26280147 -0.33163,-0.85723336 0,-0.22525843 0.1314,-1.20137813 z"
         style="font-style:italic;font-variant:normal;font-weight:bold;font-stretch:normal;font-family:Merriweather;-inkscape-font-specification:'Merriweather Bold Italic'"
         id="path3783"
         inkscape:connector-curvature="0" /><path
         d="m 74.194106,-5.9067758 q -0.0438,-0.1877154 -0.106372,-0.2690587 -0.05631,-0.081343 -0.15643,-0.081343 -0.0876,0 -0.181458,0.037543 -0.0876,0.031286 -0.219001,0.1376579 l -0.181458,-0.4380025 q 0.07509,-0.1126292 0.300344,-0.2878301 0.225259,-0.1814582 0.544375,-0.3253733 0.325373,-0.1439151 0.669518,-0.1439151 0.494317,0 0.725832,0.2190012 0.237773,0.2127441 0.300345,0.6382322 0.06257,0.3629163 0.187715,1.2702071 0.125144,0.9010336 0.181459,1.3077501 0.212744,1.6018375 0.306601,2.1900123 l 0.15643,1.43915085 0.650746,-1.33277885 0.06883,-0.1564295 q 0.350402,-0.77589 0.550632,-1.2827214 0.200229,-0.5130886 0.33163,-1.0699774 0.137658,-0.5568888 0.137658,-1.1075205 0,-0.2064868 -0.03754,-0.3566591 -0.03754,-0.1501723 -0.106372,-0.3441448 -0.06883,-0.1939725 -0.106372,-0.3253732 -0.03129,-0.137658 -0.03129,-0.3191161 0,-0.3566591 0.212744,-0.563146 0.219001,-0.2064869 0.606946,-0.2064869 0.481803,0 0.738347,0.3566592 0.256545,0.3504019 0.256545,0.8885192 0,0.6069463 -0.150173,1.195121 -0.150172,0.5819175 -0.37543,1.0887489 -0.219002,0.5005742 -0.594432,1.2576927 l -0.09386,0.1939725 q -0.538117,1.1262921 -1.201378,2.2400697 -0.657004,1.1075205 -1.138806,1.79581 -0.919805,1.4641796 -2.521643,1.4641796 -0.294087,0 -0.669518,-0.075086 -0.381688,-0.075086 -0.538117,-0.1564294 l 0.400459,-1.1388064 q 0.143915,0.1126292 0.456774,0.212744 0.319116,0.1001149 0.663261,0.1001149 0.550632,0 1.101263,-0.4192309 0.550632,-0.4129738 1.057463,-1.3327789 H 75.42677 Z"
         style="font-style:italic;font-variant:normal;font-weight:bold;font-stretch:normal;font-family:Merriweather;-inkscape-font-specification:'Merriweather Bold Italic'"
         id="path3785"
         inkscape:connector-curvature="0" /></g><g
       id="g36"
       sodipodi:insensitive="true"
       inkscape:label="#Vineyard"><g
         id="g38"
         clip-path="url(#clipPath42)"><g
           aria-label="Vineyard"
           transform="matrix(0.70155244,0,0,-1,56.9268,13.0527)"
           style="font-style:italic;font-variant:normal;font-weight:bold;font-stretch:normal;font-size:48.41419983px;font-family:'Merriweather Bold';-inkscape-font-specification:Merriweather-BoldItalic;writing-mode:lr-tb;fill:#e5e5e6;fill-opacity:1;fill-rule:nonzero;stroke:none"
           id="text46"><path
             d="m 0.47279492,-33.49752 0.28367695,-2.482173 H 14.538444 l -0.236398,2.505813 -3.71144,0.590993 2.860409,21.46489 0.543715,5.649899 2.080297,-5.649899 9.621377,-21.46489 -3.73508,-0.590993 0.236398,-2.505813 h 11.394357 l -0.354596,2.505813 -3.096807,0.567354 L 14.774841,0.23639746 9.0067432,0.35459619 3.5696016,-32.882887 Z"
             style="font-style:italic;font-variant:normal;font-weight:bold;font-stretch:normal;font-family:Merriweather;-inkscape-font-specification:'Merriweather Bold Italic'"
             id="path3748"
             inkscape:connector-curvature="0" /><path
             d="m 33.26396,-24.254379 0.378236,-2.009379 8.43939,-1.229267 1.252906,0.567354 -3.144086,21.9849641 q -0.04728,0.4727949 -0.04728,0.6619129 0,1.1347078 0.732832,1.1347078 0.401875,0 0.92195,-0.283677 0.543714,-0.3073167 1.418385,-1.0401488 l 0.685552,1.5365835 q -0.401876,0.5673539 -1.276546,1.3474655 -0.851031,0.78011164 -2.222136,1.41838478 -1.347466,0.63827314 -2.954969,0.63827314 -1.914819,0 -2.931328,-0.73283213 -1.016509,-0.75647189 -1.016509,-2.17485659 0,-0.283677 0.02364,-0.4491552 0.330956,-2.6949311 1.347465,-9.739575 l 1.442025,-10.25965 z m 3.971478,-11.25252 q 0,-1.134707 0.543714,-2.080297 0.543714,-0.96923 1.489304,-1.536584 0.94559,-0.567354 2.080298,-0.567354 1.040148,0 1.8439,0.449156 0.803751,0.449155 1.229267,1.205627 0.449155,0.732832 0.449155,1.583863 0,1.181987 -0.520075,2.174856 -0.496434,0.96923 -1.489304,1.560224 -0.969229,0.567353 -2.293055,0.567353 -0.874671,0 -1.654782,-0.472794 -0.756472,-0.472795 -1.229267,-1.252907 -0.449155,-0.780112 -0.449155,-1.631143 z"
             style="font-style:italic;font-variant:normal;font-weight:bold;font-stretch:normal;font-family:Merriweather;-inkscape-font-specification:'Merriweather Bold Italic'"
             id="path3750"
             inkscape:connector-curvature="0" /><path
             d="m 50.226896,-24.15982 0.401875,-2.103938 7.47016,-1.229267 1.181987,0.567354 -0.401875,4.893428 q 1.79662,-2.482174 4.184235,-3.971478 2.411254,-1.489304 5.011626,-1.489304 2.78949,0 4.326073,1.678422 1.536584,1.654783 1.536584,5.460782 0,1.205627 -0.330957,3.285924 -0.307316,2.080298 -0.85103,5.129825 -0.189118,1.134708 -0.307317,1.725702 -0.04728,0.3309562 -0.260037,1.6311422 -0.212758,1.2765463 -0.330957,2.2930554 -0.118198,1.016509 -0.118198,1.7493412 0,1.394745 0.732832,1.394745 0.354596,0 0.803751,-0.2363975 0.472795,-0.2363974 1.300186,-0.8510308 l 0.685553,1.5129437 q -0.354596,0.5200744 -1.205627,1.2529065 -0.851031,0.73283217 -2.174857,1.34746557 -1.323826,0.6146334 -2.931328,0.6146334 -2.174857,0 -3.073167,-0.89831035 -0.898311,-0.92195012 -0.898311,-2.50581312 0,-0.8746706 0.189118,-2.1748566 0.189118,-1.300186 0.401876,-2.5767323 0.236397,-1.300186 0.307317,-1.7020617 l 0.212757,-1.1110676 q 0.543714,-3.002248 0.851031,-5.153465 0.330957,-2.151217 0.330957,-3.995117 0,-1.489304 -0.260038,-2.269416 -0.236397,-0.803751 -0.709192,-1.063788 -0.449155,-0.283677 -1.252907,-0.283677 -1.536583,0 -3.427763,1.607502 -1.86754,1.607503 -3.309564,4.018757 L 55.900435,0 h -6.311812 l 3.073167,-22.765075 z"
             style="font-style:italic;font-variant:normal;font-weight:bold;font-stretch:normal;font-family:Merriweather;-inkscape-font-specification:'Merriweather Bold Italic'"
             id="path3752"
             inkscape:connector-curvature="0" /><path
             d="m 95.03008,-27.516664 q 2.458533,0 4.089676,0.803751 1.654784,0.780112 2.434894,2.151217 0.78011,1.371105 0.78011,3.144086 0,3.451403 -2.529452,5.839017 -2.505813,2.363975 -6.028135,3.545962 -3.522322,1.158348 -6.548209,1.229267 -0.07092,2.1039375 0.401875,3.8296389 0.496435,1.7257015 1.560223,2.7422106 1.087429,1.016509 2.742211,1.016509 4.042397,0 7.493799,-3.7114401 l 1.323828,2.2221361 q -0.780113,1.1583476 -2.245778,2.3876144 -1.465664,1.205627 -3.616881,2.05665789 -2.127577,0.85103086 -4.63339,0.85103086 -3.380484,0 -5.62626,-1.489304 -2.222136,-1.48930395 -3.285924,-3.87691835 -1.040149,-2.4112541 -1.040149,-5.2480233 0,-4.751589 1.938459,-8.746706 1.938459,-4.018757 5.318943,-6.382732 3.380484,-2.363974 7.47016,-2.363974 z m 0.92195,6.595489 q 0,-1.749341 -0.638273,-2.624012 -0.614634,-0.89831 -1.749342,-0.89831 -1.938459,0 -3.285924,1.749341 -1.347466,1.725701 -2.080298,4.231514 -0.709192,2.482174 -0.92195,4.917068 1.749341,-0.09456 3.782359,-0.99287 2.056658,-0.92195 3.475043,-2.576732 1.418385,-1.654782 1.418385,-3.805999 z"
             style="font-style:italic;font-variant:normal;font-weight:bold;font-stretch:normal;font-family:Merriweather;-inkscape-font-specification:'Merriweather Bold Italic'"
             id="path3754"
             inkscape:connector-curvature="0" /><path
             d="m 108.48487,-22.31592 q -0.16548,-0.709193 -0.40187,-1.016509 -0.21276,-0.307317 -0.591,-0.307317 -0.33095,0 -0.68555,0.141838 -0.33096,0.118199 -0.82739,0.520075 l -0.68555,-1.654782 q 0.28367,-0.425516 1.13471,-1.087429 0.85103,-0.685552 2.05665,-1.229266 1.22927,-0.543715 2.52946,-0.543715 1.86754,0 2.74221,0.827392 0.89831,0.803751 1.1347,2.411254 0.2364,1.371105 0.7092,4.798868 0.47279,3.404123 0.68555,4.940707 0.80375,6.0517749 1.15835,8.2739111 l 0.59099,5.43714154 2.45853,-5.03526594 0.26004,-0.5909936 q 1.32383,-2.9313285 2.0803,-4.8461481 0.75647,-1.938459 1.25291,-4.042396 0.52007,-2.103938 0.52007,-4.184235 0,-0.780112 -0.14184,-1.347466 -0.14184,-0.567354 -0.40187,-1.300186 -0.26004,-0.732832 -0.40188,-1.229267 -0.1182,-0.520074 -0.1182,-1.205627 0,-1.347465 0.80375,-2.127577 0.82739,-0.780112 2.29306,-0.780112 1.82026,0 2.78949,1.347466 0.96923,1.323826 0.96923,3.356844 0,2.293055 -0.56736,4.515191 -0.56735,2.198497 -1.41838,4.113316 -0.82739,1.89118 -2.24578,4.7515891 l -0.35459,0.7328321 q -2.03302,4.2551543 -4.53883,8.46302909 -2.48218,4.18423501 -4.30244,6.78460711 -3.47504,5.5317006 -9.52682,5.5317006 -1.11106,0 -2.52945,-0.283677 -1.44202,-0.283677 -2.03302,-0.590994 l 1.51295,-4.3024334 q 0.54371,0.4255154 1.7257,0.8037513 1.20563,0.378236 2.50581,0.378236 2.0803,0 4.1606,-1.583863 2.08029,-1.5602232 3.99511,-5.0352659 h -3.64052 z"
             style="font-style:italic;font-variant:normal;font-weight:bold;font-stretch:normal;font-family:Merriweather;-inkscape-font-specification:'Merriweather Bold Italic'"
             id="path3756"
             inkscape:connector-curvature="0" /><path
             d="m 149.37427,-27.493025 q 1.20562,0 2.62401,0.283677 1.41838,0.260038 2.60037,0.638273 l 3.23865,-0.92195 -3.07317,22.5523181 q -0.0236,0.1654782 -0.0236,0.4727949 0,0.6619129 0.2364,0.9928693 0.23639,0.3309565 0.61463,0.3309565 0.78011,0 2.15122,-1.0874283 l 0.70919,1.5129437 q -0.33096,0.5200744 -1.18199,1.2765463 -0.82739,0.73283212 -2.10393,1.32382577 -1.27655,0.59099365 -2.74222,0.59099365 -1.70206,0 -2.67129,-0.80375136 -0.96923,-0.82739116 -0.89831,-2.38761436 l -0.18911,-0.3073167 q -1.41839,1.5365835 -3.26229,2.52945283 -1.82026,0.96922959 -3.94784,0.96922959 -4.01875,0 -5.95721,-2.76585032 -1.93846,-2.78949 -1.93846,-7.3046815 0,-4.3260731 1.86754,-8.4630291 1.89118,-4.136956 5.48442,-6.784607 3.59324,-2.647652 8.46303,-2.647652 z m 1.65478,3.451403 q -0.96923,-0.330956 -2.29306,-0.330956 -2.90768,0 -4.8225,2.222136 -1.89118,2.198496 -2.76585,5.508061 -0.87467,3.285925 -0.87467,6.6427684 0,3.1913657 0.87467,4.940707 0.87467,1.7493412 2.55309,1.7493412 1.27654,0 2.55309,-0.8510309 1.30019,-0.8510309 2.41126,-2.1512169 z"
             style="font-style:italic;font-variant:normal;font-weight:bold;font-stretch:normal;font-family:Merriweather;-inkscape-font-specification:'Merriweather Bold Italic'"
             id="path3758"
             inkscape:connector-curvature="0" /><path
             d="m 164.41348,-24.15982 0.40188,-2.103938 6.90281,-1.229267 1.20562,0.709193 -0.40187,5.839017 q 0.54371,-1.560223 1.67842,-3.073167 1.15835,-1.512944 2.81313,-2.482173 1.67842,-0.99287 3.61688,-0.99287 0.47279,0 0.89831,0.118199 0.44916,0.118199 0.66191,0.283677 l -1.3711,6.902806 q -0.33096,-0.236398 -0.99287,-0.425516 -0.66191,-0.189117 -1.58386,-0.189117 -1.74935,0 -3.28593,0.732832 -1.53658,0.732832 -2.43489,2.340334 L 170.18158,0 h -6.31181 l 3.00225,-22.741436 z"
             style="font-style:italic;font-variant:normal;font-weight:bold;font-stretch:normal;font-family:Merriweather;-inkscape-font-specification:'Merriweather Bold Italic'"
             id="path3760"
             inkscape:connector-curvature="0" /><path
             d="m 184.1279,-9.5977369 q 0,-4.3733531 1.82026,-8.4866691 1.82026,-4.136955 5.36622,-6.760967 3.5696,-2.647652 8.51031,-2.647652 1.30018,0 2.78949,0.307317 l 1.18198,-7.848396 -3.35684,-1.016509 0.4728,-1.962099 8.46302,-0.992869 1.30019,0.638273 -4.84615,33.3793216 q -0.0473,0.4727949 -0.0473,0.6382731 0,1.2056271 0.73284,1.2056271 0.35459,0 0.82739,-0.2363975 0.49643,-0.2363974 1.30018,-0.8510308 l 0.68556,1.489304 q -0.80376,1.0401488 -2.34034,2.1275771 -1.53658,1.08742832 -3.66416,1.08742832 -1.8439,0 -2.71857,-0.94558984 -0.87467,-0.94558988 -0.87467,-2.93132848 -1.25291,1.6547822 -3.19137,2.76585026 -1.93846,1.11106806 -4.42063,1.11106806 -2.71857,0 -4.51519,-1.30018603 -1.79662,-1.32382579 -2.64765,-3.56960169 -0.82739,-2.2694156 -0.82739,-5.2007441 z m 17.98984,-14.1838471 q -1.11107,-0.590994 -2.93133,-0.590994 -2.88404,0 -4.79886,2.245776 -1.89118,2.222136 -2.76585,5.55534 -0.85104,3.309564 -0.85104,6.6664084 0,3.1440862 0.94559,4.8697877 0.94559,1.7257015 2.60038,1.7257015 1.51294,0 2.86041,-0.9219501 1.3711,-0.9455899 2.36397,-2.3166951 z"
             style="font-style:italic;font-variant:normal;font-weight:bold;font-stretch:normal;font-family:Merriweather;-inkscape-font-specification:'Merriweather Bold Italic'"
             id="path3762"
             inkscape:connector-curvature="0" /></g></g></g></g></svg>