<?xml version="1.0" encoding="iso-8859-1"?>
<!-- Generator: Adobe Illustrator 16.0.4, SVG Export Plug-In . SVG Version: 6.00 Build 0)  -->
<!DOCTYPE svg PUBLIC "-//W3C//DTD SVG 1.1//EN" "http://www.w3.org/Graphics/SVG/1.1/DTD/svg11.dtd">
<svg version="1.1" xmlns="http://www.w3.org/2000/svg" xmlns:xlink="http://www.w3.org/1999/xlink" x="0px" y="0px" width="206.5px"
	 height="64px" viewBox="0 0 206.5 64" style="enable-background:new 0 0 206.5 64;" xml:space="preserve">
<g id="Icon">
	<g id="field">
		<path style="fill:#62262B;" d="M56.367,50.991c0,5.259-4.264,9.522-9.522,9.522H11.717c-5.258,0-9.521-4.263-9.521-9.522V15.865
			c0-5.259,4.263-9.522,9.521-9.522h35.127c5.258,0,9.522,4.264,9.522,9.522V50.991z"/>
	</g>
	<g id="triquetra" transform="matrix(0.85221086,0,0,0.85221086,-154.85735,-56.130314)">
		<g>
			<path id="path2924_7_" sodipodi:nodetypes="cccccssc" inkscape:connector-curvature="0" style="fill:#FFFFFF;" d="
				M210.916,93.443c2.469-0.286,3.875-1.045,6.1-1.132c1.507-5.741,5.373-9.843,7.11-9.693c5.223,3.729,1.638,18.031-2.347,22.592
				c1.439,1.483,1.976,3.124,3.995,5.209c4.338-3.996,7.161-11.563,7.001-18.984c-0.16-7.396-4.644-14.884-7.094-15.573
				C223.248,75.178,212.052,82.56,210.916,93.443z"/>
			<path id="path2969_7_" sodipodi:nodetypes="cccccssc" inkscape:connector-curvature="0" style="fill:#FFFFFF;" d="
				M234.14,107.369c-1.202,2.176-1.403,3.761-2.624,5.621c3.797,4.563,4.888,10.093,3.759,11.42
				c-6.071,2.082-15.626-9.146-17.023-15.039c-2.084,0.158-3.702,0.048-6.561,0.224c0.731,5.853,5.249,12.547,11.382,16.73
				c6.112,4.168,14.812,4.87,16.796,3.276C241.838,128.019,242.337,114.617,234.14,107.369z"/>
			<path id="path2973_7_" sodipodi:nodetypes="cccccssc" inkscape:connector-curvature="0" style="fill:#FFFFFF;" d="
				M209.845,119.159c-1.369-2.074-2.681-2.988-3.764-4.933c-5.803,1.248-11.208-0.35-11.86-1.966
				c0.971-6.345,15.351-9.603,21.218-8.107c0.674-1.954,1.894-3.174,2.845-5.917c-5.526-2.067-13.552-1.168-20.101,2.325
				c-6.528,3.481-11.185,10.863-10.693,13.361C187.979,116.4,199.622,123.059,209.845,119.159L209.845,119.159z"/>
		</g>
	</g>
</g>
<g id="wordmark">
	<g id="Vineyard">
		<g id="Vineyard_1_">
			<path style="fill:#E5E5E6;" d="M59.431,18.064l-2.173-0.615l0.199-2.482h9.669l-0.166,2.506l-2.604,0.591l2.007,21.465
				l0.381,5.65l1.459-5.65l6.75-21.465l-2.62-0.591l0.166-2.506h7.994l-0.249,2.506l-2.172,0.567l-10.78,33.143l-4.046,0.118
				L59.431,18.064z"/>
			<path style="fill:#E5E5E6;" d="M80.446,48.063c0.078-0.945,0.183-2.092,0.315-3.439c0.132-1.347,0.284-2.868,0.456-4.562
				c0.171-1.694,0.356-3.549,0.556-5.567c0.199-2.017,0.409-4.161,0.63-6.43l-2.139-1.371l0.265-2.009l5.921-1.229l0.879,0.567
				l-2.206,21.985c-0.122,1.198,0.039,1.797,0.481,1.797c0.188,0,0.403-0.095,0.646-0.284s0.575-0.536,0.995-1.04l0.481,1.537
				c-0.088,0.173-0.257,0.449-0.506,0.827c-0.249,0.378-0.567,0.756-0.954,1.135c-0.387,0.378-0.837,0.713-1.352,1.005
				c-0.514,0.291-1.086,0.437-1.716,0.437c-0.962,0-1.684-0.288-2.165-0.863S80.357,49.151,80.446,48.063z M85.471,18.797
				c-0.321,0-0.622-0.095-0.904-0.284c-0.282-0.189-0.531-0.441-0.747-0.756c-0.215-0.315-0.384-0.678-0.506-1.088
				c-0.122-0.409-0.182-0.835-0.182-1.276c0.011-0.567,0.091-1.103,0.24-1.607c0.149-0.504,0.351-0.941,0.605-1.312
				c0.254-0.37,0.556-0.666,0.904-0.887c0.348-0.22,0.727-0.331,1.136-0.331c0.387,0,0.732,0.091,1.036,0.271
				c0.304,0.182,0.564,0.426,0.78,0.733c0.215,0.308,0.378,0.658,0.489,1.052c0.11,0.394,0.166,0.804,0.166,1.229
				c-0.011,0.567-0.083,1.111-0.215,1.631s-0.329,0.973-0.589,1.359s-0.575,0.693-0.945,0.922
				C86.369,18.683,85.946,18.797,85.471,18.797z"/>
			<path style="fill:#E5E5E6;" d="M93.882,28.182l-1.708-1.395l0.282-2.104l5.241-1.229l0.829,0.567l-0.282,4.894
				c0.398-0.788,0.84-1.517,1.327-2.187c0.486-0.67,1.003-1.245,1.551-1.726c0.547-0.48,1.122-0.858,1.725-1.134
				c0.603-0.276,1.219-0.414,1.849-0.414c0.608,0,1.164,0.123,1.667,0.367c0.503,0.245,0.937,0.646,1.302,1.206
				c0.365,0.56,0.646,1.296,0.846,2.21s0.298,2.033,0.298,3.356c0,0.458-0.027,1.028-0.083,1.714
				c-0.056,0.686-0.125,1.415-0.208,2.187c-0.083,0.772-0.174,1.552-0.273,2.34c-0.1,0.788-0.188,1.513-0.266,2.175
				c-0.066,0.599-0.141,1.222-0.224,1.868c-0.083,0.646-0.158,1.285-0.224,1.915c-0.066,0.63-0.125,1.241-0.174,1.832
				c-0.049,0.591-0.08,1.146-0.091,1.667c-0.011,0.567,0.03,0.962,0.124,1.182c0.094,0.221,0.224,0.331,0.39,0.331
				c0.166,0,0.354-0.075,0.563-0.225c0.21-0.149,0.514-0.438,0.912-0.863l0.481,1.513c-0.077,0.158-0.235,0.414-0.473,0.769
				s-0.547,0.713-0.929,1.076c-0.381,0.363-0.827,0.682-1.335,0.957c-0.509,0.276-1.072,0.414-1.691,0.414
				c-0.564,0-1.028-0.095-1.393-0.284c-0.365-0.189-0.653-0.449-0.863-0.78s-0.354-0.717-0.431-1.158
				c-0.077-0.441-0.11-0.914-0.099-1.418c0.011-0.426,0.042-0.926,0.091-1.501c0.05-0.575,0.11-1.182,0.183-1.82
				c0.072-0.638,0.152-1.3,0.241-1.986c0.088-0.686,0.176-1.359,0.265-2.021c0.077-0.662,0.166-1.383,0.265-2.163
				c0.1-0.78,0.191-1.58,0.274-2.399s0.152-1.635,0.207-2.447s0.083-1.572,0.083-2.281c0-0.741-0.036-1.339-0.108-1.797
				c-0.072-0.457-0.171-0.807-0.298-1.052c-0.127-0.244-0.288-0.41-0.481-0.497c-0.193-0.086-0.417-0.13-0.672-0.13
				c-0.365,0-0.754,0.146-1.169,0.438s-0.832,0.689-1.252,1.193c-0.42,0.505-0.827,1.1-1.219,1.785s-0.754,1.422-1.086,2.21
				l-1.691,17.612h-4.428L93.882,28.182z"/>
			<path style="fill:#E5E5E6;" d="M113.271,40.782c0.011-2.396,0.282-4.645,0.813-6.749s1.26-3.944,2.189-5.52
				c0.929-1.576,2.018-2.817,3.267-3.723s2.604-1.359,4.063-1.359c0.873,0,1.63,0.154,2.272,0.461
				c0.641,0.307,1.172,0.725,1.592,1.253c0.42,0.528,0.732,1.155,0.937,1.879c0.204,0.725,0.312,1.505,0.323,2.34
				c0.011,1.261-0.155,2.399-0.498,3.416s-0.802,1.923-1.376,2.718c-0.575,0.796-1.238,1.482-1.99,2.057
				c-0.752,0.576-1.521,1.048-2.305,1.418c-0.785,0.371-1.564,0.654-2.338,0.851c-0.774,0.197-1.471,0.304-2.09,0.319
				c-0.022,1.024,0.025,1.994,0.141,2.908s0.307,1.718,0.572,2.411c0.265,0.694,0.613,1.245,1.045,1.655
				c0.431,0.41,0.945,0.615,1.542,0.615c0.553,0,1.075-0.099,1.567-0.296c0.492-0.197,0.956-0.464,1.393-0.804
				c0.437-0.338,0.846-0.732,1.228-1.182c0.381-0.449,0.738-0.926,1.069-1.43l0.929,2.222c-0.232,0.504-0.566,1.06-1.003,1.667
				c-0.437,0.607-0.967,1.182-1.592,1.726c-0.625,0.544-1.338,0.997-2.14,1.359s-1.678,0.543-2.628,0.543
				c-1.261,0-2.336-0.307-3.226-0.922c-0.89-0.615-1.615-1.426-2.173-2.435c-0.559-1.009-0.965-2.155-1.219-3.44
				C113.382,43.458,113.261,42.138,113.271,40.782z M118.164,37.402c0.376-0.032,0.791-0.126,1.244-0.284
				c0.453-0.158,0.906-0.386,1.36-0.686c0.453-0.299,0.893-0.658,1.318-1.076c0.425-0.417,0.799-0.902,1.12-1.454
				c0.32-0.551,0.578-1.158,0.771-1.82c0.193-0.662,0.285-1.387,0.273-2.175c-0.022-1.166-0.177-2.025-0.464-2.577
				c-0.288-0.551-0.691-0.827-1.21-0.827c-0.487,0-0.929,0.173-1.327,0.52s-0.752,0.804-1.062,1.371s-0.583,1.226-0.821,1.974
				c-0.238,0.749-0.437,1.529-0.597,2.34c-0.161,0.812-0.29,1.624-0.39,2.435C118.28,35.956,118.208,36.708,118.164,37.402z"/>
			<path style="fill:#E5E5E6;" d="M130.639,58.264c0.199,0.134,0.428,0.26,0.688,0.378s0.544,0.216,0.854,0.295
				c0.309,0.079,0.63,0.118,0.962,0.118c0.442,0,0.901-0.114,1.376-0.343c0.475-0.229,0.956-0.603,1.443-1.123
				c0.486-0.52,0.973-1.202,1.459-2.044c0.486-0.843,0.967-1.879,1.443-3.109h-2.554l-3.267-23.805
				c-0.078-0.488-0.169-0.831-0.274-1.028c-0.105-0.197-0.246-0.295-0.423-0.295c-0.132,0-0.279,0.035-0.439,0.106
				c-0.16,0.071-0.368,0.256-0.622,0.555l-0.481-1.655c0.077-0.157,0.234-0.394,0.473-0.709c0.237-0.315,0.536-0.63,0.896-0.946
				c0.359-0.315,0.765-0.594,1.219-0.839c0.453-0.244,0.929-0.367,1.426-0.367c0.453,0,0.84,0.075,1.161,0.225
				c0.32,0.15,0.588,0.363,0.804,0.638c0.216,0.276,0.381,0.615,0.498,1.017s0.202,0.855,0.257,1.359
				c0.066,0.583,0.146,1.352,0.241,2.305c0.094,0.954,0.199,2.002,0.315,3.145s0.232,2.333,0.348,3.569
				c0.116,1.237,0.229,2.423,0.34,3.558c0.11,1.135,0.212,2.179,0.307,3.132c0.094,0.954,0.174,1.722,0.241,2.305l0.415,5.437
				l1.725-5.035c0.365-1.182,0.722-2.34,1.07-3.475s0.658-2.266,0.929-3.393c0.271-1.126,0.486-2.25,0.647-3.369
				c0.16-1.119,0.24-2.261,0.24-3.428c0-0.583-0.039-1.076-0.116-1.478s-0.163-0.78-0.257-1.134c-0.094-0.355-0.18-0.721-0.257-1.1
				c-0.077-0.378-0.116-0.835-0.116-1.371c0-0.898,0.188-1.607,0.563-2.127s0.913-0.78,1.609-0.78c0.442,0,0.829,0.126,1.161,0.378
				c0.332,0.252,0.605,0.591,0.821,1.017c0.215,0.425,0.378,0.922,0.489,1.489c0.11,0.567,0.166,1.174,0.166,1.82
				c0,1.308-0.094,2.561-0.282,3.759s-0.431,2.375-0.729,3.534c-0.299,1.158-0.642,2.301-1.028,3.428
				c-0.387,1.127-0.78,2.257-1.178,3.392c-0.531,1.56-1.086,3.101-1.667,4.622c-0.581,1.521-1.147,2.951-1.7,4.291
				s-1.078,2.553-1.575,3.641s-0.918,1.986-1.261,2.695c-0.84,1.907-1.819,3.306-2.936,4.196c-1.117,0.89-2.366,1.335-3.748,1.335
				c-0.265,0-0.558-0.028-0.879-0.083c-0.321-0.056-0.63-0.123-0.929-0.201c-0.298-0.079-0.572-0.173-0.821-0.284
				c-0.249-0.11-0.439-0.213-0.572-0.307l1.062-4.303C130.285,58,130.439,58.13,130.639,58.264z"/>
			<path style="fill:#E5E5E6;" d="M156.165,51.42c-0.984,0-1.827-0.26-2.529-0.78s-1.277-1.233-1.725-2.14
				c-0.448-0.906-0.774-1.974-0.979-3.203s-0.307-2.545-0.307-3.948c0-1.387,0.107-2.793,0.323-4.22
				c0.215-1.426,0.533-2.801,0.954-4.125c0.42-1.324,0.942-2.565,1.567-3.724c0.625-1.158,1.349-2.17,2.172-3.038
				c0.824-0.866,1.741-1.548,2.753-2.045c1.012-0.496,2.12-0.745,3.325-0.745c0.619,0,1.261,0.099,1.924,0.296
				c0.664,0.197,1.244,0.406,1.742,0.626l2.272-0.922l-2.156,22.552c-0.055,0.646-0.02,1.107,0.108,1.383
				c0.127,0.276,0.285,0.414,0.473,0.414c0.155,0,0.348-0.071,0.581-0.213c0.232-0.142,0.542-0.433,0.929-0.875l0.498,1.513
				c-0.089,0.189-0.251,0.461-0.489,0.816c-0.238,0.354-0.539,0.709-0.904,1.063c-0.365,0.355-0.788,0.662-1.269,0.922
				c-0.481,0.26-1.003,0.39-1.567,0.39c-0.774,0-1.393-0.26-1.857-0.78s-0.68-1.324-0.647-2.412l-0.133-0.307
				c-0.288,0.458-0.613,0.895-0.979,1.312c-0.365,0.418-0.757,0.788-1.177,1.111c-0.42,0.323-0.874,0.583-1.36,0.78
				C157.22,51.321,156.706,51.42,156.165,51.42z M157.74,47.638c0.32,0,0.641-0.083,0.962-0.248c0.32-0.166,0.63-0.39,0.929-0.674
				c0.298-0.284,0.58-0.606,0.846-0.969c0.265-0.362,0.514-0.733,0.746-1.111l1.659-17.729c-0.244-0.126-0.5-0.213-0.771-0.26
				s-0.55-0.071-0.837-0.071c-0.719,0-1.366,0.213-1.94,0.638c-0.575,0.426-1.083,1.005-1.526,1.738
				c-0.442,0.732-0.818,1.58-1.127,2.541c-0.31,0.961-0.564,1.974-0.763,3.038c-0.199,1.064-0.346,2.147-0.439,3.25
				c-0.094,1.104-0.141,2.16-0.141,3.168c0,2.112,0.202,3.755,0.605,4.929C156.344,47.051,156.944,47.638,157.74,47.638z"/>
			<path style="fill:#E5E5E6;" d="M174.012,28.206l-1.725-1.418l0.282-2.104l4.843-1.229l0.846,0.709l-0.282,5.839
				c0.177-0.725,0.437-1.473,0.78-2.246c0.342-0.772,0.757-1.478,1.243-2.116c0.486-0.639,1.036-1.162,1.65-1.572
				c0.613-0.41,1.285-0.615,2.015-0.615c0.232,0,0.451,0.044,0.656,0.13c0.203,0.086,0.35,0.177,0.439,0.271l-0.963,6.903
				c-0.121-0.126-0.332-0.26-0.631-0.402c-0.298-0.142-0.69-0.212-1.177-0.212c-0.364,0-0.737,0.051-1.12,0.153
				c-0.381,0.103-0.748,0.276-1.102,0.52c-0.354,0.245-0.687,0.564-0.996,0.958c-0.309,0.394-0.574,0.875-0.796,1.442l-1.642,17.73
				h-4.428L174.012,28.206z"/>
			<path style="fill:#E5E5E6;" d="M191.727,51.42c-0.995,0-1.847-0.26-2.554-0.78c-0.708-0.52-1.288-1.233-1.742-2.14
				c-0.453-0.906-0.785-1.974-0.995-3.203s-0.314-2.545-0.314-3.948c0-1.387,0.102-2.793,0.307-4.22
				c0.204-1.426,0.511-2.801,0.92-4.125c0.409-1.324,0.924-2.565,1.543-3.724c0.619-1.158,1.335-2.17,2.147-3.038
				c0.812-0.866,1.728-1.548,2.745-2.045c1.017-0.496,2.134-0.745,3.35-0.745c0.32,0,0.647,0.028,0.979,0.083
				c0.332,0.055,0.658,0.13,0.979,0.225l0.829-7.849l-2.354-1.017l0.331-1.962l5.938-0.993l0.912,0.638l-3.399,33.379
				c-0.056,0.567-0.045,1.016,0.033,1.347c0.077,0.331,0.227,0.497,0.447,0.497c0.155,0,0.343-0.071,0.564-0.213
				c0.221-0.142,0.53-0.433,0.929-0.875l0.48,1.489c-0.089,0.158-0.246,0.414-0.473,0.768c-0.227,0.355-0.52,0.713-0.879,1.076
				c-0.359,0.363-0.779,0.682-1.261,0.958c-0.48,0.275-1.014,0.414-1.6,0.414c-0.874,0-1.513-0.315-1.916-0.945
				c-0.403-0.63-0.605-1.607-0.605-2.932c-0.254,0.473-0.556,0.942-0.903,1.407c-0.349,0.465-0.746,0.879-1.194,1.241
				c-0.448,0.363-0.942,0.658-1.484,0.886C192.942,51.306,192.356,51.42,191.727,51.42z M193.269,47.638
				c0.376,0,0.741-0.095,1.095-0.284s0.688-0.438,1.004-0.745c0.314-0.307,0.604-0.654,0.87-1.04s0.498-0.776,0.696-1.17
				l1.809-17.233c-0.299-0.22-0.62-0.374-0.962-0.461c-0.344-0.086-0.708-0.13-1.095-0.13c-0.73,0-1.38,0.217-1.949,0.65
				c-0.569,0.434-1.072,1.017-1.509,1.75c-0.438,0.733-0.811,1.588-1.12,2.565c-0.31,0.978-0.563,2.001-0.763,3.073
				s-0.343,2.159-0.431,3.262c-0.089,1.104-0.133,2.159-0.133,3.167c0,2.112,0.221,3.739,0.663,4.882
				C191.887,47.067,192.495,47.638,193.269,47.638z"/>
		</g>
		<g id="Capital_City">
			<path style="fill:#E6E6E6;" d="M100.189,15.199c-0.363,0-0.688-0.062-0.976-0.188s-0.532-0.31-0.732-0.554
				s-0.356-0.545-0.466-0.904s-0.168-0.771-0.172-1.239c-0.004-0.338,0.029-0.684,0.1-1.039c0.071-0.354,0.177-0.7,0.319-1.035
				c0.142-0.336,0.32-0.652,0.535-0.948c0.215-0.296,0.467-0.555,0.757-0.776c0.29-0.221,0.615-0.396,0.977-0.525
				c0.36-0.129,0.76-0.194,1.198-0.194c0.121,0,0.248,0.006,0.381,0.019c0.134,0.013,0.267,0.029,0.4,0.05
				c0.134,0.021,0.262,0.048,0.385,0.082c0.123,0.034,0.235,0.071,0.335,0.113l-0.451,1.664c-0.004-0.004-0.021-0.008-0.053-0.012
				c-0.031-0.004-0.065-0.008-0.103-0.013c-0.038-0.004-0.072-0.007-0.103-0.009s-0.049-0.005-0.053-0.009
				c-0.08-0.092-0.167-0.192-0.263-0.3c-0.096-0.108-0.194-0.21-0.294-0.304s-0.198-0.171-0.294-0.231
				c-0.096-0.061-0.186-0.091-0.269-0.091c-0.234,0-0.457,0.081-0.669,0.241c-0.213,0.161-0.399,0.389-0.56,0.686
				c-0.161,0.296-0.287,0.657-0.379,1.083c-0.092,0.425-0.133,0.903-0.125,1.433c0.004,0.346,0.033,0.644,0.088,0.892
				c0.054,0.249,0.13,0.452,0.228,0.61s0.219,0.274,0.363,0.347c0.144,0.073,0.31,0.109,0.497,0.109c0.18,0,0.342-0.018,0.488-0.053
				c0.146-0.035,0.284-0.086,0.413-0.153c0.129-0.066,0.252-0.147,0.369-0.241c0.117-0.094,0.235-0.197,0.356-0.31l0.332,0.582
				c-0.083,0.117-0.199,0.247-0.347,0.388s-0.331,0.274-0.547,0.397s-0.464,0.226-0.742,0.31S100.527,15.199,100.189,15.199z"/>
			<path style="fill:#E6E6E6;" d="M107.029,15.199c-0.371,0-0.689-0.069-0.954-0.207c-0.265-0.138-0.482-0.326-0.651-0.566
				s-0.292-0.522-0.369-0.848c-0.077-0.325-0.116-0.673-0.116-1.045c0-0.367,0.041-0.739,0.122-1.117s0.201-0.742,0.36-1.092
				c0.158-0.351,0.355-0.679,0.591-0.986c0.235-0.307,0.509-0.574,0.819-0.804c0.311-0.229,0.657-0.41,1.039-0.542
				c0.381-0.131,0.8-0.197,1.254-0.197c0.233,0,0.476,0.026,0.726,0.079c0.25,0.052,0.469,0.107,0.657,0.166l0.857-0.244
				l-0.813,5.97c-0.021,0.171-0.007,0.293,0.041,0.366c0.048,0.073,0.107,0.11,0.178,0.11c0.059,0,0.131-0.019,0.219-0.057
				c0.087-0.038,0.204-0.115,0.35-0.231l0.188,0.4c-0.034,0.05-0.095,0.122-0.185,0.216c-0.09,0.094-0.204,0.188-0.341,0.282
				c-0.138,0.094-0.297,0.175-0.479,0.244c-0.181,0.069-0.378,0.103-0.591,0.103c-0.292,0-0.525-0.069-0.701-0.207
				s-0.256-0.35-0.244-0.638l-0.05-0.081c-0.109,0.121-0.232,0.237-0.369,0.347c-0.138,0.11-0.286,0.208-0.444,0.294
				c-0.159,0.085-0.33,0.154-0.513,0.207S107.233,15.199,107.029,15.199z M107.624,14.198c0.121,0,0.242-0.022,0.363-0.066
				c0.121-0.043,0.238-0.103,0.35-0.178c0.113-0.075,0.219-0.161,0.319-0.256c0.1-0.096,0.194-0.194,0.282-0.294l0.625-4.693
				c-0.092-0.033-0.189-0.056-0.291-0.069c-0.102-0.012-0.208-0.019-0.316-0.019c-0.271,0-0.515,0.056-0.732,0.169
				c-0.217,0.113-0.409,0.266-0.576,0.46c-0.167,0.194-0.309,0.418-0.426,0.672c-0.117,0.255-0.212,0.523-0.288,0.804
				c-0.075,0.282-0.13,0.568-0.166,0.86c-0.035,0.292-0.053,0.572-0.053,0.838c0,0.559,0.076,0.994,0.229,1.305
				C107.097,14.043,107.323,14.198,107.624,14.198z"/>
			<path style="fill:#E6E6E6;" d="M115.076,18.328h-1.639l1.258-9.33l-0.676-0.344l0.106-0.532l2.046-0.326l0.313,0.15l-0.075,0.651
				c0.1-0.104,0.212-0.205,0.335-0.3c0.123-0.096,0.259-0.182,0.41-0.257s0.312-0.134,0.485-0.178
				c0.173-0.044,0.36-0.066,0.56-0.066c0.363,0,0.679,0.064,0.948,0.191c0.27,0.127,0.494,0.309,0.673,0.544
				c0.179,0.236,0.314,0.521,0.404,0.854c0.089,0.334,0.134,0.707,0.134,1.12c0,0.384-0.043,0.768-0.128,1.151
				s-0.21,0.749-0.375,1.095c-0.165,0.346-0.366,0.668-0.604,0.967s-0.509,0.557-0.813,0.776c-0.305,0.219-0.642,0.391-1.011,0.516
				s-0.764,0.188-1.186,0.188c-0.121,0-0.241-0.007-0.36-0.022c-0.119-0.015-0.239-0.032-0.36-0.053L115.076,18.328z
				 M115.646,14.242c0.108,0.05,0.224,0.085,0.347,0.106c0.123,0.021,0.264,0.032,0.422,0.032c0.258,0,0.491-0.054,0.698-0.163
				c0.207-0.108,0.39-0.256,0.55-0.444c0.161-0.188,0.299-0.407,0.417-0.657c0.117-0.25,0.211-0.517,0.285-0.801
				c0.073-0.284,0.127-0.577,0.163-0.879c0.035-0.302,0.053-0.598,0.053-0.885c0-0.254-0.021-0.489-0.062-0.704
				c-0.042-0.215-0.104-0.399-0.185-0.554c-0.082-0.154-0.182-0.274-0.301-0.36c-0.119-0.085-0.257-0.128-0.416-0.128
				c-0.142,0-0.276,0.024-0.403,0.072c-0.127,0.048-0.246,0.11-0.357,0.188c-0.11,0.078-0.214,0.166-0.31,0.266
				c-0.096,0.1-0.182,0.203-0.256,0.307L115.646,14.242z"/>
			<path style="fill:#E6E6E6;" d="M122.84,14.311c0.029-0.25,0.069-0.554,0.119-0.911c0.05-0.356,0.107-0.759,0.172-1.208
				c0.065-0.448,0.135-0.939,0.21-1.474c0.075-0.534,0.154-1.101,0.237-1.702l-0.807-0.363l0.1-0.532l2.234-0.326l0.332,0.15
				l-0.832,5.819c-0.046,0.317,0.015,0.476,0.182,0.476c0.071,0,0.152-0.025,0.244-0.075c0.091-0.05,0.217-0.142,0.375-0.275
				l0.182,0.407c-0.033,0.046-0.097,0.119-0.191,0.219c-0.094,0.101-0.214,0.201-0.36,0.301s-0.316,0.188-0.51,0.266
				s-0.41,0.116-0.647,0.116c-0.363,0-0.635-0.076-0.817-0.228C122.881,14.819,122.807,14.599,122.84,14.311z M124.736,6.564
				c-0.121,0-0.234-0.025-0.341-0.075c-0.106-0.05-0.2-0.117-0.282-0.2c-0.081-0.083-0.145-0.179-0.191-0.288
				s-0.069-0.221-0.069-0.338c0.004-0.15,0.035-0.292,0.091-0.426c0.056-0.133,0.132-0.249,0.229-0.347
				c0.096-0.098,0.209-0.176,0.341-0.235c0.131-0.058,0.274-0.087,0.429-0.087c0.146,0,0.276,0.024,0.391,0.072
				c0.115,0.048,0.213,0.113,0.294,0.194c0.082,0.081,0.143,0.174,0.185,0.278c0.042,0.104,0.063,0.213,0.063,0.325
				c-0.004,0.15-0.032,0.294-0.082,0.432c-0.05,0.137-0.124,0.257-0.222,0.359c-0.098,0.103-0.217,0.184-0.356,0.244
				C125.075,6.534,124.915,6.564,124.736,6.564z"/>
			<path style="fill:#E6E6E6;" d="M128.162,14.079c0-0.021,0.001-0.049,0.003-0.084c0.002-0.035,0.007-0.096,0.016-0.181
				c0.008-0.085,0.021-0.201,0.038-0.347c0.017-0.146,0.042-0.342,0.075-0.588l0.532-4.086h-0.751l0.144-0.62l0.763-0.294
				c0.083-0.079,0.167-0.183,0.25-0.31c0.083-0.127,0.166-0.266,0.247-0.416c0.081-0.15,0.158-0.307,0.231-0.47
				c0.073-0.163,0.141-0.319,0.203-0.469h0.92l-0.207,1.633h1.452l-0.138,0.945h-1.433l-0.52,3.842
				c-0.033,0.221-0.059,0.411-0.075,0.569c-0.017,0.159-0.025,0.294-0.025,0.407c0,0.2,0.035,0.34,0.104,0.419
				c0.068,0.079,0.197,0.119,0.385,0.119c0.079,0,0.169-0.011,0.269-0.034s0.2-0.053,0.3-0.091s0.198-0.082,0.294-0.134
				c0.096-0.052,0.182-0.107,0.256-0.166l0.138,0.494c-0.083,0.1-0.199,0.208-0.347,0.322s-0.321,0.221-0.519,0.319
				c-0.198,0.098-0.418,0.179-0.66,0.244c-0.242,0.064-0.497,0.097-0.764,0.097c-0.154,0-0.302-0.018-0.444-0.053
				c-0.142-0.035-0.268-0.097-0.378-0.185c-0.11-0.087-0.198-0.203-0.263-0.347C128.194,14.47,128.162,14.292,128.162,14.079z"/>
			<path style="fill:#E6E6E6;" d="M135.802,15.199c-0.371,0-0.689-0.069-0.954-0.207c-0.265-0.138-0.482-0.326-0.651-0.566
				s-0.292-0.522-0.369-0.848c-0.077-0.325-0.116-0.673-0.116-1.045c0-0.367,0.041-0.739,0.122-1.117s0.201-0.742,0.36-1.092
				c0.158-0.351,0.355-0.679,0.591-0.986c0.235-0.307,0.509-0.574,0.819-0.804c0.311-0.229,0.657-0.41,1.039-0.542
				c0.381-0.131,0.8-0.197,1.254-0.197c0.233,0,0.476,0.026,0.726,0.079c0.25,0.052,0.469,0.107,0.657,0.166l0.857-0.244
				l-0.813,5.97c-0.021,0.171-0.007,0.293,0.041,0.366c0.048,0.073,0.107,0.11,0.178,0.11c0.059,0,0.131-0.019,0.219-0.057
				c0.087-0.038,0.204-0.115,0.35-0.231l0.188,0.4c-0.034,0.05-0.095,0.122-0.185,0.216c-0.09,0.094-0.204,0.188-0.341,0.282
				c-0.138,0.094-0.297,0.175-0.479,0.244c-0.181,0.069-0.378,0.103-0.591,0.103c-0.292,0-0.525-0.069-0.701-0.207
				s-0.256-0.35-0.244-0.638l-0.05-0.081c-0.109,0.121-0.232,0.237-0.369,0.347c-0.138,0.11-0.286,0.208-0.444,0.294
				c-0.159,0.085-0.33,0.154-0.513,0.207S136.006,15.199,135.802,15.199z M136.396,14.198c0.121,0,0.242-0.022,0.363-0.066
				c0.121-0.043,0.238-0.103,0.35-0.178c0.113-0.075,0.219-0.161,0.319-0.256c0.1-0.096,0.194-0.194,0.282-0.294l0.625-4.693
				c-0.092-0.033-0.189-0.056-0.291-0.069c-0.102-0.012-0.208-0.019-0.316-0.019c-0.271,0-0.515,0.056-0.732,0.169
				c-0.217,0.113-0.409,0.266-0.576,0.46c-0.167,0.194-0.309,0.418-0.426,0.672c-0.117,0.255-0.212,0.523-0.288,0.804
				c-0.075,0.282-0.13,0.568-0.166,0.86c-0.035,0.292-0.053,0.572-0.053,0.838c0,0.559,0.076,0.994,0.229,1.305
				C135.87,14.043,136.096,14.198,136.396,14.198z"/>
			<path style="fill:#E6E6E6;" d="M142.718,14.354c0-0.066,0.005-0.148,0.016-0.244c0.011-0.096,0.02-0.175,0.028-0.238l1.107-8.072
				l-0.801-0.269l0.125-0.52l2.146-0.263l0.313,0.169l-1.202,8.848c-0.021,0.146-0.017,0.262,0.013,0.347
				c0.029,0.085,0.085,0.128,0.169,0.128c0.029,0,0.062-0.004,0.1-0.013s0.079-0.025,0.125-0.05c0.046-0.025,0.101-0.06,0.166-0.106
				c0.064-0.046,0.141-0.104,0.228-0.175l0.182,0.4c-0.033,0.046-0.095,0.119-0.185,0.219c-0.09,0.101-0.206,0.201-0.347,0.301
				c-0.142,0.1-0.307,0.188-0.495,0.266c-0.188,0.077-0.394,0.116-0.619,0.116c-0.15,0-0.29-0.016-0.419-0.047
				s-0.242-0.08-0.338-0.147c-0.096-0.067-0.172-0.153-0.229-0.26C142.746,14.639,142.718,14.509,142.718,14.354z"/>
			<path style="fill:#E6E6E6;" d="M154.535,15.199c-0.363,0-0.688-0.062-0.976-0.188s-0.532-0.31-0.732-0.554
				s-0.356-0.545-0.466-0.904s-0.168-0.771-0.172-1.239c-0.004-0.338,0.029-0.684,0.1-1.039c0.071-0.354,0.177-0.7,0.319-1.035
				c0.142-0.336,0.32-0.652,0.535-0.948c0.215-0.296,0.467-0.555,0.757-0.776c0.29-0.221,0.615-0.396,0.977-0.525
				c0.36-0.129,0.76-0.194,1.198-0.194c0.121,0,0.248,0.006,0.381,0.019c0.134,0.013,0.267,0.029,0.4,0.05
				c0.134,0.021,0.262,0.048,0.385,0.082c0.123,0.034,0.235,0.071,0.335,0.113l-0.451,1.664c-0.004-0.004-0.021-0.008-0.053-0.012
				c-0.031-0.004-0.065-0.008-0.103-0.013c-0.038-0.004-0.072-0.007-0.103-0.009s-0.049-0.005-0.053-0.009
				c-0.08-0.092-0.167-0.192-0.263-0.3c-0.096-0.108-0.194-0.21-0.294-0.304s-0.198-0.171-0.294-0.231
				c-0.096-0.061-0.186-0.091-0.269-0.091c-0.234,0-0.457,0.081-0.669,0.241c-0.213,0.161-0.399,0.389-0.56,0.686
				c-0.161,0.296-0.287,0.657-0.379,1.083c-0.092,0.425-0.133,0.903-0.125,1.433c0.004,0.346,0.033,0.644,0.088,0.892
				c0.054,0.249,0.13,0.452,0.228,0.61s0.219,0.274,0.363,0.347c0.144,0.073,0.31,0.109,0.497,0.109c0.18,0,0.342-0.018,0.488-0.053
				c0.146-0.035,0.284-0.086,0.413-0.153c0.129-0.066,0.252-0.147,0.369-0.241c0.117-0.094,0.235-0.197,0.356-0.31l0.332,0.582
				c-0.083,0.117-0.199,0.247-0.347,0.388s-0.331,0.274-0.547,0.397s-0.464,0.226-0.742,0.31S154.873,15.199,154.535,15.199z"/>
			<path style="fill:#E6E6E6;" d="M159.789,14.311c0.029-0.25,0.069-0.554,0.119-0.911c0.05-0.356,0.107-0.759,0.172-1.208
				c0.065-0.448,0.135-0.939,0.21-1.474c0.075-0.534,0.154-1.101,0.237-1.702l-0.807-0.363l0.1-0.532l2.234-0.326l0.332,0.15
				l-0.832,5.819c-0.046,0.317,0.015,0.476,0.182,0.476c0.071,0,0.152-0.025,0.244-0.075c0.091-0.05,0.217-0.142,0.375-0.275
				l0.182,0.407c-0.033,0.046-0.097,0.119-0.191,0.219c-0.094,0.101-0.214,0.201-0.36,0.301s-0.316,0.188-0.51,0.266
				s-0.41,0.116-0.647,0.116c-0.363,0-0.635-0.076-0.817-0.228C159.83,14.819,159.755,14.599,159.789,14.311z M161.685,6.564
				c-0.121,0-0.234-0.025-0.341-0.075c-0.106-0.05-0.2-0.117-0.282-0.2c-0.081-0.083-0.145-0.179-0.191-0.288
				s-0.069-0.221-0.069-0.338c0.004-0.15,0.035-0.292,0.091-0.426c0.056-0.133,0.132-0.249,0.229-0.347
				c0.096-0.098,0.209-0.176,0.341-0.235c0.131-0.058,0.274-0.087,0.429-0.087c0.146,0,0.276,0.024,0.391,0.072
				c0.115,0.048,0.213,0.113,0.294,0.194c0.082,0.081,0.143,0.174,0.185,0.278c0.042,0.104,0.063,0.213,0.063,0.325
				c-0.004,0.15-0.032,0.294-0.082,0.432c-0.05,0.137-0.124,0.257-0.222,0.359c-0.098,0.103-0.217,0.184-0.356,0.244
				C162.023,6.534,161.864,6.564,161.685,6.564z"/>
			<path style="fill:#E6E6E6;" d="M165.111,14.079c0-0.021,0.001-0.049,0.003-0.084c0.002-0.035,0.007-0.096,0.016-0.181
				c0.008-0.085,0.021-0.201,0.038-0.347c0.017-0.146,0.042-0.342,0.075-0.588l0.532-4.086h-0.751l0.144-0.62l0.763-0.294
				c0.083-0.079,0.167-0.183,0.25-0.31c0.083-0.127,0.166-0.266,0.247-0.416c0.081-0.15,0.158-0.307,0.231-0.47
				c0.073-0.163,0.141-0.319,0.203-0.469h0.92l-0.207,1.633h1.452l-0.138,0.945h-1.433l-0.52,3.842
				c-0.033,0.221-0.059,0.411-0.075,0.569c-0.017,0.159-0.025,0.294-0.025,0.407c0,0.2,0.035,0.34,0.104,0.419
				c0.068,0.079,0.197,0.119,0.385,0.119c0.079,0,0.169-0.011,0.269-0.034s0.2-0.053,0.3-0.091s0.198-0.082,0.294-0.134
				c0.096-0.052,0.182-0.107,0.256-0.166l0.138,0.494c-0.083,0.1-0.199,0.208-0.347,0.322s-0.321,0.221-0.519,0.319
				c-0.198,0.098-0.418,0.179-0.66,0.244c-0.242,0.064-0.497,0.097-0.764,0.097c-0.154,0-0.302-0.018-0.444-0.053
				c-0.142-0.035-0.268-0.097-0.378-0.185c-0.11-0.087-0.198-0.203-0.263-0.347C165.143,14.47,165.111,14.292,165.111,14.079z"/>
			<path style="fill:#E6E6E6;" d="M170.71,17.011c0.075,0.036,0.162,0.069,0.26,0.1s0.206,0.058,0.322,0.078
				c0.117,0.021,0.238,0.031,0.363,0.031c0.167,0,0.34-0.03,0.52-0.09c0.179-0.061,0.361-0.16,0.544-0.297s0.367-0.318,0.551-0.542
				s0.365-0.497,0.544-0.823h-0.964l-1.232-6.301c-0.029-0.129-0.064-0.22-0.104-0.272c-0.04-0.052-0.093-0.078-0.16-0.078
				c-0.05,0-0.105,0.009-0.166,0.028c-0.061,0.019-0.139,0.068-0.235,0.147l-0.181-0.438c0.029-0.042,0.088-0.104,0.178-0.188
				c0.089-0.083,0.202-0.167,0.338-0.25c0.135-0.083,0.289-0.157,0.46-0.222c0.171-0.064,0.35-0.097,0.538-0.097
				c0.171,0,0.317,0.02,0.438,0.06c0.121,0.04,0.222,0.096,0.303,0.169c0.082,0.073,0.144,0.163,0.188,0.269
				c0.043,0.106,0.076,0.227,0.097,0.36c0.025,0.154,0.056,0.358,0.091,0.61c0.036,0.252,0.075,0.53,0.119,0.832
				c0.043,0.302,0.087,0.617,0.131,0.945c0.043,0.328,0.086,0.641,0.128,0.942c0.042,0.3,0.081,0.577,0.116,0.829
				c0.035,0.252,0.065,0.456,0.09,0.61l0.157,1.439l0.65-1.333c0.138-0.313,0.272-0.62,0.404-0.92s0.248-0.6,0.351-0.898
				c0.102-0.298,0.183-0.595,0.244-0.892s0.091-0.599,0.091-0.907c0-0.154-0.015-0.285-0.043-0.391
				c-0.029-0.106-0.062-0.207-0.097-0.3c-0.036-0.094-0.068-0.191-0.097-0.291s-0.043-0.221-0.043-0.363
				c0-0.238,0.071-0.426,0.212-0.563c0.142-0.138,0.344-0.207,0.607-0.207c0.166,0,0.312,0.034,0.438,0.101
				c0.125,0.066,0.229,0.156,0.311,0.269c0.08,0.112,0.143,0.244,0.184,0.394c0.042,0.15,0.062,0.311,0.062,0.482
				c0,0.346-0.035,0.678-0.105,0.995c-0.071,0.317-0.163,0.629-0.275,0.936c-0.113,0.307-0.242,0.609-0.389,0.907
				s-0.294,0.598-0.443,0.898c-0.201,0.413-0.411,0.821-0.629,1.223c-0.219,0.403-0.433,0.781-0.642,1.136s-0.407,0.676-0.594,0.964
				c-0.188,0.288-0.346,0.525-0.476,0.713c-0.317,0.505-0.686,0.875-1.107,1.111s-0.893,0.354-1.414,0.354
				c-0.1,0-0.211-0.007-0.332-0.022c-0.121-0.015-0.238-0.032-0.351-0.053c-0.113-0.021-0.216-0.046-0.31-0.075
				c-0.094-0.029-0.166-0.057-0.216-0.082l0.401-1.139C170.577,16.941,170.636,16.975,170.71,17.011z"/>
		</g>
	</g>
</g>
</svg>
