<?xml version="1.0" encoding="UTF-8" standalone="no"?>
<!-- Created with Inkscape (http://www.inkscape.org/) -->

<svg
   xmlns:dc="http://purl.org/dc/elements/1.1/"
   xmlns:cc="http://creativecommons.org/ns#"
   xmlns:rdf="http://www.w3.org/1999/02/22-rdf-syntax-ns#"
   xmlns:svg="http://www.w3.org/2000/svg"
   xmlns="http://www.w3.org/2000/svg"
   xmlns:sodipodi="http://sodipodi.sourceforge.net/DTD/sodipodi-0.dtd"
   xmlns:inkscape="http://www.inkscape.org/namespaces/inkscape"
   version="1.1"
   id="svg2"
   xml:space="preserve"
   width="275.33334"
   height="85.333336"
   viewBox="0 0 275.33334 85.333336"
   sodipodi:docname="webhead02.svg"
   inkscape:version="0.92.1 r15371"><metadata
     id="metadata8"><rdf:RDF><cc:Work
         rdf:about=""><dc:format>image/svg+xml</dc:format><dc:type
           rdf:resource="http://purl.org/dc/dcmitype/StillImage" /><dc:title></dc:title></cc:Work></rdf:RDF></metadata><defs
     id="defs6"><clipPath
       clipPathUnits="userSpaceOnUse"
       id="clipPath18"><path
         d="M 0,64 H 206.5 V 0 H 0 Z"
         id="path16"
         inkscape:connector-curvature="0" /></clipPath><clipPath
       clipPathUnits="userSpaceOnUse"
       id="clipPath46"><path
         d="M 0,64 H 206.5 V 0 H 0 Z"
         id="path44"
         inkscape:connector-curvature="0" /></clipPath></defs><sodipodi:namedview
     pagecolor="#ffffff"
     bordercolor="#666666"
     borderopacity="1"
     objecttolerance="10"
     gridtolerance="10"
     guidetolerance="10"
     inkscape:pageopacity="0"
     inkscape:pageshadow="2"
     inkscape:window-width="1366"
     inkscape:window-height="705"
     id="namedview4"
     showgrid="false"
     inkscape:zoom="1.1585956"
     inkscape:cx="34.524557"
     inkscape:cy="42.666668"
     inkscape:window-x="-8"
     inkscape:window-y="-8"
     inkscape:window-maximized="1"
     inkscape:current-layer="g10" /><g
     id="g10"
     inkscape:groupmode="layer"
     inkscape:label="webhead02"
     transform="matrix(1.3333333,0,0,-1.3333333,0,85.333333)"><g
       id="g12"><g
         id="g14"
         clip-path="url(#clipPath18)"><g
           id="g20"
           transform="translate(56.3672,13.0088)"><path
             d="M 0,0 C 0,-5.259 -4.264,-9.522 -9.522,-9.522 H -44.65 c -5.258,0 -9.521,4.263 -9.521,9.522 v 35.126 c 0,5.259 4.263,9.523 9.521,9.523 H -9.522 C -4.264,44.649 0,40.385 0,35.126 Z"
             style="fill:#62262b;fill-opacity:1;fill-rule:nonzero;stroke:none"
             id="path22"
             inkscape:connector-curvature="0" /></g><g
           id="g24"
           transform="translate(24.8877,40.4976)"><path
             d="m 0,0 c 2.104,0.244 3.303,0.89 5.198,0.965 1.284,4.892 4.579,8.388 6.059,8.261 4.451,-3.179 1.396,-15.367 -2,-19.254 1.227,-1.264 1.684,-2.662 3.405,-4.439 3.697,3.406 6.102,9.854 5.966,16.179 C 18.492,8.015 14.67,14.396 12.582,14.983 10.509,15.565 0.968,9.274 0,0"
             style="fill:#ffffff;fill-opacity:1;fill-rule:nonzero;stroke:none"
             id="path26"
             inkscape:connector-curvature="0" /></g><g
           id="g28"
           transform="translate(44.6792,28.6289)"><path
             d="M 0,0 C -1.024,-1.854 -1.195,-3.205 -2.236,-4.791 1,-8.679 1.93,-13.392 0.967,-14.523 c -5.174,-1.774 -13.317,7.794 -14.508,12.816 -1.775,-0.134 -3.154,-0.04 -5.591,-0.19 0.623,-4.988 4.474,-10.693 9.7,-14.258 5.209,-3.552 12.622,-4.15 14.314,-2.792 C 6.561,-17.598 6.985,-6.176 0,0"
             style="fill:#ffffff;fill-opacity:1;fill-rule:nonzero;stroke:none"
             id="path30"
             inkscape:connector-curvature="0" /></g><g
           id="g32"
           transform="translate(23.9746,18.582)"><path
             d="m 0,0 c -1.167,1.768 -2.285,2.546 -3.208,4.204 -4.945,-1.064 -9.551,0.298 -10.106,1.675 0.827,5.407 13.082,8.184 18.082,6.909 0.574,1.665 1.614,2.705 2.425,5.042 C 2.484,19.591 -4.356,18.826 -9.937,15.849 -15.5,12.882 -19.469,6.591 -19.05,4.462 -18.634,2.351 -8.712,-3.324 0,0"
             style="fill:#ffffff;fill-opacity:1;fill-rule:nonzero;stroke:none"
             id="path34"
             inkscape:connector-curvature="0" /></g></g></g><g
       id="g36"
       transform="translate(59.4312,45.9355)"><path
         d="m 0,0 -2.173,0.615 0.199,2.482 H 7.695 L 7.529,0.591 4.925,0 l 2.007,-21.465 0.381,-5.65 1.46,5.65 6.75,21.465 -2.62,0.591 0.165,2.506 h 7.994 L 20.813,0.591 18.641,0.023 7.861,-33.119 3.814,-33.237 Z"
         style="fill:#e5e5e6;fill-opacity:1;fill-rule:nonzero;stroke:none"
         id="path38"
         inkscape:connector-curvature="0" /></g><g
       id="g40"><g
         id="g42"
         clip-path="url(#clipPath46)"><g
           id="g48"
           transform="translate(85.4712,45.2026)"><path
             d="m 0,0 c -0.321,0 -0.622,0.095 -0.904,0.284 -0.282,0.189 -0.531,0.441 -0.746,0.756 -0.216,0.315 -0.385,0.678 -0.506,1.088 -0.122,0.409 -0.182,0.835 -0.182,1.276 0.01,0.568 0.091,1.103 0.24,1.608 0.149,0.504 0.351,0.941 0.605,1.312 0.255,0.37 0.556,0.665 0.904,0.886 0.348,0.221 0.727,0.331 1.136,0.331 C 0.934,7.541 1.279,7.45 1.583,7.27 1.888,7.088 2.147,6.844 2.363,6.537 2.579,6.229 2.742,5.878 2.853,5.484 2.963,5.09 3.018,4.681 3.018,4.255 3.007,3.688 2.936,3.144 2.803,2.624 2.67,2.104 2.474,1.651 2.214,1.265 1.954,0.878 1.639,0.571 1.269,0.343 0.898,0.114 0.475,0 0,0 m -5.025,-29.266 c 0.077,0.946 0.182,2.092 0.315,3.44 0.132,1.347 0.284,2.868 0.456,4.562 0.171,1.694 0.357,3.55 0.556,5.567 0.198,2.017 0.408,4.161 0.63,6.43 l -2.14,1.371 0.266,2.01 5.921,1.229 0.878,-0.567 -2.205,-21.985 c -0.122,-1.198 0.038,-1.797 0.481,-1.797 0.187,0 0.403,0.095 0.646,0.284 0.243,0.189 0.575,0.535 0.995,1.04 l 0.481,-1.537 c -0.088,-0.173 -0.256,-0.449 -0.505,-0.827 -0.249,-0.378 -0.567,-0.756 -0.954,-1.135 -0.387,-0.378 -0.838,-0.713 -1.352,-1.005 -0.514,-0.291 -1.086,-0.437 -1.716,-0.437 -0.962,0 -1.684,0.288 -2.165,0.863 -0.48,0.575 -0.677,1.406 -0.588,2.494"
             style="fill:#e5e5e6;fill-opacity:1;fill-rule:nonzero;stroke:none"
             id="path50"
             inkscape:connector-curvature="0" /></g><g
           id="g52"
           transform="translate(93.8823,35.8179)"><path
             d="m 0,0 -1.708,1.395 0.282,2.104 5.24,1.229 0.83,-0.567 -0.282,-4.894 c 0.398,0.788 0.84,1.517 1.326,2.187 0.487,0.67 1.004,1.245 1.551,1.726 0.547,0.48 1.122,0.858 1.725,1.134 0.602,0.276 1.219,0.414 1.849,0.414 0.608,0 1.164,-0.123 1.667,-0.367 0.503,-0.244 0.937,-0.646 1.302,-1.205 0.364,-0.56 0.646,-1.297 0.845,-2.211 0.2,-0.914 0.299,-2.032 0.299,-3.356 0,-0.458 -0.028,-1.028 -0.083,-1.714 -0.055,-0.686 -0.124,-1.415 -0.207,-2.187 -0.083,-0.772 -0.175,-1.552 -0.274,-2.34 -0.099,-0.788 -0.188,-1.513 -0.265,-2.175 -0.067,-0.599 -0.141,-1.222 -0.224,-1.868 -0.083,-0.646 -0.158,-1.284 -0.224,-1.914 -0.066,-0.631 -0.125,-1.242 -0.174,-1.832 -0.05,-0.592 -0.08,-1.147 -0.091,-1.667 -0.011,-0.567 0.03,-0.962 0.124,-1.182 0.094,-0.221 0.224,-0.331 0.39,-0.331 0.165,0 0.353,0.075 0.563,0.225 0.21,0.149 0.515,0.437 0.913,0.862 l 0.48,-1.512 c -0.077,-0.158 -0.234,-0.414 -0.472,-0.769 -0.238,-0.354 -0.547,-0.713 -0.929,-1.076 -0.381,-0.362 -0.827,-0.681 -1.335,-0.957 -0.509,-0.276 -1.072,-0.414 -1.691,-0.414 -0.564,0 -1.029,0.095 -1.393,0.284 -0.366,0.189 -0.653,0.449 -0.863,0.78 -0.21,0.331 -0.354,0.717 -0.431,1.158 -0.077,0.441 -0.111,0.915 -0.099,1.419 0.01,0.426 0.041,0.926 0.09,1.501 0.05,0.575 0.111,1.182 0.183,1.82 0.072,0.638 0.152,1.3 0.241,1.986 0.088,0.686 0.176,1.359 0.265,2.021 0.077,0.662 0.166,1.383 0.265,2.163 0.1,0.78 0.191,1.58 0.274,2.4 0.083,0.819 0.152,1.635 0.207,2.446 0.055,0.812 0.083,1.573 0.083,2.282 0,0.74 -0.036,1.339 -0.108,1.796 C 10.069,-0.749 9.97,-0.398 9.843,-0.154 9.715,0.09 9.555,0.256 9.362,0.343 9.168,0.429 8.944,0.473 8.69,0.473 8.325,0.473 7.936,0.327 7.521,0.035 7.106,-0.256 6.689,-0.654 6.269,-1.158 5.849,-1.663 5.442,-2.258 5.05,-2.943 4.657,-3.629 4.295,-4.366 3.963,-5.153 L 2.272,-22.765 h -4.428 z"
             style="fill:#e5e5e6;fill-opacity:1;fill-rule:nonzero;stroke:none"
             id="path54"
             inkscape:connector-curvature="0" /></g><g
           id="g56"
           transform="translate(118.1641,26.5981)"><path
             d="M 0,0 C 0.376,0.032 0.791,0.126 1.244,0.284 1.697,0.441 2.15,0.67 2.604,0.969 3.057,1.269 3.497,1.627 3.922,2.045 4.348,2.462 4.721,2.947 5.042,3.499 5.362,4.05 5.62,4.657 5.813,5.319 6.006,5.981 6.098,6.706 6.086,7.494 6.064,8.66 5.91,9.519 5.622,10.071 5.334,10.622 4.931,10.898 4.412,10.898 3.925,10.898 3.483,10.725 3.085,10.378 2.687,10.031 2.333,9.574 2.023,9.007 1.714,8.439 1.44,7.781 1.203,7.033 0.964,6.284 0.766,5.504 0.605,4.693 0.445,3.881 0.315,3.069 0.216,2.258 0.116,1.446 0.044,0.693 0,0 m -4.893,-3.38 c 0.012,2.395 0.283,4.645 0.813,6.749 0.531,2.104 1.261,3.943 2.189,5.52 0.929,1.575 2.018,2.817 3.267,3.723 1.25,0.906 2.604,1.359 4.064,1.359 0.873,0 1.63,-0.154 2.272,-0.461 0.641,-0.307 1.172,-0.725 1.592,-1.253 0.42,-0.528 0.732,-1.154 0.937,-1.879 0.204,-0.725 0.312,-1.505 0.323,-2.34 C 10.575,6.777 10.41,5.638 10.067,4.622 9.724,3.605 9.265,2.699 8.69,1.903 8.115,1.107 7.452,0.421 6.7,-0.153 5.948,-0.729 5.18,-1.202 4.395,-1.572 3.61,-1.942 2.831,-2.226 2.057,-2.423 1.283,-2.62 0.586,-2.727 -0.033,-2.742 -0.055,-3.767 -0.008,-4.736 0.108,-5.65 0.224,-6.564 0.415,-7.368 0.68,-8.061 c 0.265,-0.694 0.613,-1.245 1.045,-1.655 0.431,-0.41 0.945,-0.615 1.542,-0.615 0.553,0 1.075,0.099 1.567,0.296 0.492,0.197 0.957,0.465 1.394,0.804 0.436,0.338 0.845,0.732 1.227,1.182 0.381,0.449 0.738,0.925 1.069,1.43 L 9.453,-8.841 C 9.221,-9.346 8.887,-9.901 8.45,-10.508 8.013,-11.115 7.482,-11.689 6.858,-12.233 6.233,-12.777 5.52,-13.23 4.718,-13.593 3.917,-13.955 3.041,-14.136 2.09,-14.136 c -1.261,0 -2.336,0.307 -3.226,0.922 -0.89,0.614 -1.614,1.426 -2.173,2.434 -0.558,1.009 -0.964,2.155 -1.218,3.44 -0.255,1.284 -0.376,2.604 -0.366,3.96"
             style="fill:#e5e5e6;fill-opacity:1;fill-rule:nonzero;stroke:none"
             id="path58"
             inkscape:connector-curvature="0" /></g><g
           id="g60"
           transform="translate(130.6387,5.7363)"><path
             d="m 0,0 c 0.199,-0.134 0.428,-0.26 0.688,-0.378 0.26,-0.119 0.544,-0.217 0.854,-0.296 0.31,-0.078 0.63,-0.118 0.962,-0.118 0.442,0 0.901,0.114 1.377,0.343 0.475,0.228 0.956,0.603 1.443,1.123 0.486,0.52 0.972,1.201 1.459,2.044 0.487,0.844 0.967,1.88 1.443,3.109 H 5.672 L 2.405,29.632 C 2.327,30.121 2.236,30.463 2.131,30.661 2.026,30.857 1.885,30.956 1.708,30.956 1.576,30.956 1.429,30.921 1.269,30.85 1.108,30.779 0.901,30.593 0.647,30.294 l -0.481,1.655 c 0.077,0.157 0.234,0.394 0.473,0.709 0.237,0.315 0.536,0.631 0.895,0.946 0.359,0.315 0.765,0.594 1.219,0.839 0.453,0.244 0.929,0.367 1.426,0.367 0.453,0 0.841,-0.076 1.161,-0.225 0.321,-0.15 0.589,-0.363 0.805,-0.638 C 6.36,33.67 6.526,33.332 6.642,32.93 6.758,32.528 6.844,32.075 6.899,31.571 6.965,30.987 7.045,30.219 7.14,29.266 7.233,28.312 7.338,27.264 7.455,26.122 7.571,24.979 7.687,23.789 7.803,22.552 7.919,21.315 8.032,20.129 8.143,18.995 8.253,17.86 8.355,16.815 8.45,15.862 8.543,14.909 8.624,14.14 8.69,13.557 L 9.105,8.12 10.83,13.155 c 0.364,1.182 0.721,2.341 1.069,3.475 0.349,1.135 0.658,2.266 0.929,3.393 0.271,1.126 0.486,2.249 0.647,3.369 0.16,1.118 0.24,2.261 0.24,3.427 0,0.583 -0.039,1.076 -0.116,1.478 -0.077,0.402 -0.163,0.78 -0.257,1.134 -0.094,0.355 -0.179,0.721 -0.257,1.1 -0.077,0.378 -0.116,0.835 -0.116,1.371 0,0.898 0.188,1.607 0.564,2.127 0.376,0.52 0.912,0.781 1.609,0.781 0.441,0 0.829,-0.127 1.161,-0.379 0.331,-0.252 0.605,-0.591 0.821,-1.016 0.215,-0.426 0.378,-0.922 0.489,-1.49 0.11,-0.567 0.165,-1.174 0.165,-1.82 0,-1.308 -0.093,-2.561 -0.281,-3.759 -0.188,-1.198 -0.432,-2.375 -0.73,-3.534 -0.299,-1.158 -0.642,-2.301 -1.028,-3.428 -0.387,-1.127 -0.78,-2.257 -1.178,-3.392 C 14.03,14.432 13.475,12.891 12.895,11.371 12.314,9.85 11.747,8.419 11.194,7.08 10.642,5.741 10.117,4.527 9.619,3.439 9.122,2.352 8.701,1.454 8.358,0.745 7.518,-1.162 6.54,-2.561 5.423,-3.452 4.306,-4.342 3.057,-4.787 1.675,-4.787 c -0.265,0 -0.558,0.028 -0.879,0.082 -0.321,0.056 -0.63,0.123 -0.929,0.202 -0.298,0.079 -0.572,0.173 -0.821,0.283 -0.249,0.111 -0.439,0.213 -0.572,0.307 L -0.464,0.39 C -0.354,0.264 -0.199,0.134 0,0"
             style="fill:#e5e5e6;fill-opacity:1;fill-rule:nonzero;stroke:none"
             id="path62"
             inkscape:connector-curvature="0" /></g><g
           id="g64"
           transform="translate(157.7402,16.3623)"><path
             d="m 0,0 c 0.32,0 0.641,0.083 0.962,0.248 0.32,0.166 0.63,0.39 0.929,0.674 0.298,0.284 0.58,0.606 0.845,0.969 0.265,0.362 0.514,0.733 0.746,1.111 l 1.659,17.73 c -0.244,0.126 -0.5,0.213 -0.771,0.26 -0.271,0.048 -0.55,0.071 -0.838,0.071 -0.719,0 -1.365,-0.213 -1.94,-0.638 C 1.017,19.999 0.508,19.42 0.066,18.687 -0.376,17.955 -0.752,17.107 -1.062,16.146 -1.371,15.185 -1.625,14.172 -1.825,13.108 -2.023,12.044 -2.17,10.961 -2.264,9.858 -2.358,8.754 -2.405,7.698 -2.405,6.69 -2.405,4.578 -2.203,2.935 -1.8,1.761 -1.396,0.587 -0.796,0 0,0 m -1.576,-3.782 c -0.984,0 -1.827,0.26 -2.529,0.78 -0.702,0.52 -1.277,1.232 -1.725,2.139 -0.447,0.906 -0.774,1.974 -0.978,3.203 -0.205,1.23 -0.307,2.545 -0.307,3.948 0,1.387 0.108,2.794 0.323,4.22 0.216,1.426 0.534,2.801 0.954,4.125 0.42,1.324 0.942,2.565 1.567,3.723 0.625,1.159 1.349,2.171 2.173,3.038 0.824,0.866 1.741,1.548 2.753,2.045 1.012,0.496 2.12,0.745 3.325,0.745 0.619,0 1.261,-0.099 1.924,-0.296 0.663,-0.197 1.244,-0.406 1.742,-0.626 L 9.917,24.184 7.761,1.631 C 7.706,0.985 7.742,0.524 7.869,0.248 c 0.127,-0.276 0.285,-0.414 0.473,-0.414 0.155,0 0.348,0.071 0.58,0.213 0.232,0.142 0.542,0.433 0.929,0.875 l 0.498,-1.513 C 10.26,-0.78 10.097,-1.052 9.859,-1.407 9.622,-1.761 9.32,-2.116 8.956,-2.47 8.591,-2.825 8.167,-3.132 7.687,-3.392 7.206,-3.652 6.684,-3.782 6.12,-3.782 c -0.775,0 -1.393,0.26 -1.858,0.78 -0.464,0.52 -0.68,1.324 -0.647,2.411 L 3.482,-0.284 C 3.195,-0.741 2.869,-1.178 2.504,-1.596 2.139,-2.014 1.747,-2.384 1.327,-2.707 0.906,-3.03 0.453,-3.29 -0.033,-3.487 -0.52,-3.684 -1.034,-3.782 -1.576,-3.782"
             style="fill:#e5e5e6;fill-opacity:1;fill-rule:nonzero;stroke:none"
             id="path66"
             inkscape:connector-curvature="0" /></g><g
           id="g68"
           transform="translate(174.0122,35.7939)"><path
             d="M 0,0 -1.725,1.418 -1.443,3.522 3.4,4.752 4.246,4.042 3.963,-1.796 C 4.14,-1.072 4.4,-0.323 4.744,0.449 5.085,1.221 5.5,1.927 5.987,2.565 c 0.486,0.639 1.036,1.162 1.65,1.572 0.613,0.41 1.285,0.615 2.015,0.615 0.232,0 0.451,-0.044 0.656,-0.13 0.203,-0.087 0.35,-0.178 0.44,-0.272 L 9.785,-2.553 C 9.664,-2.427 9.453,-2.293 9.154,-2.151 8.856,-2.009 8.463,-1.938 7.977,-1.938 7.613,-1.938 7.24,-1.99 6.857,-2.092 6.476,-2.195 6.109,-2.368 5.755,-2.612 5.401,-2.856 5.069,-3.176 4.759,-3.569 4.451,-3.963 4.185,-4.444 3.963,-5.011 l -1.641,-17.73 h -4.428 z"
             style="fill:#e5e5e6;fill-opacity:1;fill-rule:nonzero;stroke:none"
             id="path70"
             inkscape:connector-curvature="0" /></g><g
           id="g72"
           transform="translate(193.2686,16.3623)"><path
             d="m 0,0 c 0.376,0 0.741,0.095 1.095,0.284 0.353,0.189 0.688,0.437 1.004,0.744 0.314,0.307 0.604,0.654 0.87,1.04 0.265,0.387 0.498,0.777 0.696,1.171 l 1.809,17.233 c -0.299,0.22 -0.62,0.374 -0.962,0.461 -0.344,0.087 -0.708,0.13 -1.095,0.13 -0.73,0 -1.38,-0.217 -1.949,-0.65 -0.57,-0.434 -1.072,-1.017 -1.509,-1.749 -0.438,-0.733 -0.811,-1.588 -1.12,-2.565 -0.31,-0.978 -0.564,-2.002 -0.763,-3.074 -0.199,-1.071 -0.343,-2.159 -0.43,-3.262 -0.089,-1.103 -0.133,-2.159 -0.133,-3.167 0,-2.113 0.22,-3.74 0.663,-4.882 C -1.382,0.571 -0.773,0 0,0 m -1.542,-3.782 c -0.995,0 -1.847,0.26 -2.554,0.78 -0.708,0.52 -1.288,1.232 -1.742,2.139 -0.453,0.906 -0.785,1.974 -0.995,3.203 -0.21,1.23 -0.314,2.545 -0.314,3.948 0,1.387 0.101,2.794 0.306,4.22 0.204,1.426 0.511,2.801 0.92,4.125 0.409,1.324 0.924,2.565 1.543,3.723 0.619,1.159 1.335,2.171 2.148,3.038 0.812,0.866 1.727,1.548 2.745,2.045 1.016,0.496 2.133,0.745 3.349,0.745 0.321,0 0.648,-0.028 0.979,-0.083 0.332,-0.056 0.658,-0.13 0.978,-0.225 l 0.829,7.849 -2.354,1.016 0.331,1.962 5.937,0.993 0.913,-0.638 -3.4,-33.38 C 8.021,1.111 8.032,0.662 8.11,0.331 8.188,0 8.337,-0.166 8.558,-0.166 c 0.155,0 0.342,0.071 0.564,0.213 0.221,0.142 0.53,0.433 0.929,0.875 l 0.48,-1.489 C 10.442,-0.725 10.285,-0.981 10.059,-1.335 9.832,-1.69 9.539,-2.049 9.18,-2.411 8.82,-2.774 8.4,-3.093 7.919,-3.369 7.438,-3.644 6.905,-3.782 6.319,-3.782 5.445,-3.782 4.807,-3.467 4.403,-2.837 4,-2.207 3.798,-1.229 3.798,0.095 3.544,-0.378 3.242,-0.847 2.895,-1.312 2.546,-1.777 2.148,-2.191 1.7,-2.553 1.252,-2.916 0.758,-3.211 0.216,-3.439 -0.326,-3.668 -0.912,-3.782 -1.542,-3.782"
             style="fill:#e5e5e6;fill-opacity:1;fill-rule:nonzero;stroke:none"
             id="path74"
             inkscape:connector-curvature="0" /></g><g
           id="g76"
           transform="translate(100.1895,48.8008)"><path
             d="m 0,0 c -0.363,0 -0.688,0.062 -0.976,0.187 -0.288,0.125 -0.532,0.31 -0.732,0.554 -0.2,0.244 -0.356,0.546 -0.466,0.905 -0.111,0.358 -0.168,0.771 -0.172,1.238 -0.005,0.338 0.029,0.684 0.1,1.039 0.071,0.355 0.177,0.7 0.319,1.035 0.142,0.336 0.32,0.652 0.535,0.949 0.215,0.296 0.467,0.554 0.757,0.776 0.29,0.221 0.615,0.396 0.976,0.525 0.361,0.129 0.761,0.194 1.199,0.194 0.12,0 0.248,-0.006 0.381,-0.019 C 2.055,7.371 2.188,7.354 2.321,7.333 2.455,7.312 2.583,7.285 2.706,7.252 2.829,7.218 2.941,7.181 3.041,7.139 L 2.59,5.475 C 2.586,5.479 2.569,5.483 2.537,5.487 2.506,5.492 2.472,5.496 2.434,5.5 2.396,5.504 2.362,5.507 2.331,5.509 2.3,5.511 2.282,5.515 2.278,5.519 2.198,5.61 2.111,5.71 2.015,5.819 1.919,5.927 1.821,6.029 1.721,6.123 1.621,6.216 1.522,6.293 1.427,6.354 1.331,6.415 1.241,6.445 1.158,6.445 0.924,6.445 0.701,6.364 0.488,6.204 0.275,6.043 0.089,5.815 -0.072,5.519 -0.232,5.223 -0.359,4.862 -0.451,4.436 -0.542,4.011 -0.584,3.533 -0.576,3.003 -0.571,2.657 -0.542,2.36 -0.488,2.112 -0.434,1.863 -0.358,1.66 -0.26,1.501 -0.162,1.343 -0.041,1.227 0.104,1.154 0.247,1.081 0.413,1.045 0.601,1.045 c 0.179,0 0.342,0.017 0.488,0.053 0.146,0.035 0.284,0.087 0.413,0.153 0.129,0.067 0.252,0.147 0.369,0.241 0.117,0.094 0.235,0.197 0.357,0.31 L 2.559,1.22 C 2.476,1.103 2.36,0.974 2.212,0.832 2.064,0.69 1.881,0.558 1.665,0.435 1.448,0.312 1.2,0.208 0.923,0.125 0.646,0.042 0.338,0 0,0"
             style="fill:#e6e6e6;fill-opacity:1;fill-rule:nonzero;stroke:none"
             id="path78"
             inkscape:connector-curvature="0" /></g><g
           id="g80"
           transform="translate(107.6235,49.8018)"><path
             d="m 0,0 c 0.121,0 0.242,0.022 0.363,0.066 0.12,0.043 0.238,0.103 0.35,0.178 0.113,0.075 0.219,0.161 0.319,0.256 0.1,0.097 0.194,0.194 0.282,0.295 L 1.939,5.488 C 1.848,5.521 1.75,5.544 1.648,5.557 1.546,5.569 1.441,5.575 1.333,5.575 1.062,5.575 0.817,5.519 0.601,5.406 0.383,5.293 0.191,5.14 0.025,4.946 -0.142,4.752 -0.284,4.528 -0.401,4.274 -0.518,4.019 -0.613,3.751 -0.688,3.47 -0.764,3.188 -0.819,2.901 -0.854,2.609 -0.89,2.317 -0.908,2.038 -0.908,1.771 -0.908,1.212 -0.832,0.777 -0.679,0.466 -0.527,0.155 -0.301,0 0,0 m -0.595,-1.001 c -0.371,0 -0.689,0.069 -0.954,0.207 -0.265,0.137 -0.482,0.326 -0.651,0.565 -0.169,0.24 -0.292,0.523 -0.369,0.849 -0.077,0.325 -0.116,0.673 -0.116,1.045 0,0.366 0.041,0.739 0.122,1.116 0.082,0.378 0.202,0.742 0.36,1.092 0.159,0.351 0.356,0.679 0.592,0.986 0.235,0.307 0.508,0.574 0.819,0.804 0.311,0.229 0.657,0.41 1.039,0.541 0.381,0.131 0.8,0.197 1.254,0.197 0.234,0 0.476,-0.026 0.727,-0.078 C 2.478,6.271 2.697,6.215 2.884,6.157 L 3.742,6.401 2.928,0.432 C 2.907,0.261 2.921,0.139 2.969,0.066 c 0.048,-0.073 0.107,-0.11 0.178,-0.11 0.059,0 0.131,0.019 0.219,0.057 0.088,0.037 0.204,0.114 0.35,0.231 l 0.188,-0.4 C 3.871,-0.207 3.81,-0.278 3.72,-0.372 3.63,-0.466 3.516,-0.56 3.379,-0.654 3.241,-0.748 3.082,-0.829 2.9,-0.898 2.719,-0.967 2.521,-1.001 2.309,-1.001 c -0.292,0 -0.526,0.069 -0.701,0.207 -0.175,0.137 -0.256,0.35 -0.244,0.638 l -0.05,0.081 C 1.205,-0.196 1.082,-0.312 0.945,-0.422 0.807,-0.533 0.659,-0.631 0.5,-0.716 0.342,-0.802 0.171,-0.871 -0.013,-0.923 -0.196,-0.975 -0.39,-1.001 -0.595,-1.001"
             style="fill:#e6e6e6;fill-opacity:1;fill-rule:nonzero;stroke:none"
             id="path82"
             inkscape:connector-curvature="0" /></g><g
           id="g84"
           transform="translate(115.6455,49.7578)"><path
             d="m 0,0 c 0.108,-0.05 0.224,-0.085 0.347,-0.106 0.123,-0.021 0.264,-0.032 0.423,-0.032 0.258,0 0.491,0.055 0.697,0.163 0.207,0.109 0.39,0.257 0.551,0.444 0.16,0.188 0.299,0.407 0.416,0.657 0.117,0.251 0.212,0.518 0.285,0.801 0.073,0.284 0.127,0.577 0.162,0.88 0.036,0.302 0.054,0.597 0.054,0.885 0,0.254 -0.021,0.489 -0.063,0.704 C 2.83,4.611 2.769,4.795 2.688,4.95 2.606,5.104 2.506,5.224 2.387,5.31 2.268,5.395 2.129,5.437 1.971,5.437 1.829,5.437 1.694,5.414 1.567,5.366 1.44,5.318 1.321,5.255 1.21,5.178 1.1,5.101 0.997,5.012 0.901,4.912 0.805,4.812 0.719,4.709 0.645,4.605 Z m -0.57,-4.086 h -1.639 l 1.258,9.33 -0.676,0.344 0.106,0.532 2.046,0.325 0.313,-0.15 -0.075,-0.651 c 0.1,0.105 0.212,0.205 0.335,0.3 0.123,0.097 0.259,0.182 0.41,0.257 0.15,0.075 0.312,0.134 0.485,0.178 0.173,0.044 0.36,0.066 0.56,0.066 C 2.916,6.445 3.231,6.381 3.5,6.254 3.77,6.127 3.994,5.945 4.173,5.71 4.353,5.474 4.487,5.189 4.577,4.856 4.667,4.522 4.711,4.149 4.711,3.736 4.711,3.352 4.668,2.968 4.583,2.584 4.498,2.201 4.373,1.835 4.208,1.489 4.043,1.143 3.842,0.821 3.604,0.522 3.366,0.224 3.095,-0.034 2.791,-0.253 2.486,-0.472 2.149,-0.645 1.78,-0.77 1.411,-0.895 1.016,-0.957 0.594,-0.957 c -0.121,0 -0.24,0.007 -0.36,0.022 -0.118,0.015 -0.238,0.032 -0.359,0.053 z"
             style="fill:#e6e6e6;fill-opacity:1;fill-rule:nonzero;stroke:none"
             id="path86"
             inkscape:connector-curvature="0" /></g><g
           id="g88"
           transform="translate(124.7358,57.4355)"><path
             d="m 0,0 c -0.121,0 -0.234,0.025 -0.341,0.075 -0.106,0.05 -0.2,0.117 -0.282,0.2 -0.081,0.084 -0.145,0.18 -0.19,0.288 -0.046,0.108 -0.069,0.221 -0.069,0.338 0.004,0.15 0.034,0.292 0.09,0.426 0.057,0.133 0.133,0.249 0.229,0.347 0.096,0.098 0.209,0.176 0.341,0.235 0.131,0.058 0.274,0.087 0.429,0.087 0.146,0 0.276,-0.024 0.391,-0.072 C 0.712,1.876 0.811,1.812 0.892,1.73 0.973,1.649 1.035,1.556 1.076,1.452 1.118,1.347 1.139,1.239 1.139,1.126 1.135,0.976 1.107,0.832 1.058,0.694 1.007,0.557 0.934,0.437 0.835,0.335 0.737,0.232 0.619,0.151 0.479,0.091 0.339,0.03 0.179,0 0,0 m -1.896,-7.747 c 0.029,0.251 0.069,0.555 0.119,0.911 0.05,0.357 0.108,0.759 0.172,1.208 0.065,0.448 0.135,0.939 0.21,1.473 0.075,0.534 0.154,1.101 0.237,1.702 l -0.807,0.363 0.1,0.532 2.234,0.326 0.332,-0.151 -0.832,-5.819 c -0.046,-0.317 0.014,-0.476 0.181,-0.476 0.071,0 0.152,0.026 0.244,0.075 0.092,0.051 0.217,0.142 0.375,0.276 L 0.851,-7.734 C 0.818,-7.78 0.754,-7.853 0.66,-7.953 c -0.094,-0.1 -0.214,-0.2 -0.36,-0.3 -0.146,-0.101 -0.316,-0.189 -0.509,-0.266 -0.194,-0.077 -0.41,-0.116 -0.648,-0.116 -0.363,0 -0.635,0.076 -0.817,0.228 -0.181,0.153 -0.255,0.373 -0.222,0.66"
             style="fill:#e6e6e6;fill-opacity:1;fill-rule:nonzero;stroke:none"
             id="path90"
             inkscape:connector-curvature="0" /></g><g
           id="g92"
           transform="translate(128.1621,49.9209)"><path
             d="M 0,0 C 0,0.021 0.001,0.049 0.003,0.084 0.005,0.12 0.01,0.18 0.019,0.266 0.027,0.351 0.04,0.467 0.057,0.613 0.073,0.759 0.098,0.955 0.131,1.201 l 0.533,4.086 h -0.751 l 0.144,0.62 0.763,0.294 c 0.083,0.079 0.167,0.182 0.25,0.309 0.083,0.128 0.166,0.266 0.247,0.416 0.081,0.151 0.159,0.307 0.232,0.47 0.073,0.163 0.14,0.319 0.203,0.469 h 0.92 L 2.465,6.232 H 3.917 L 3.779,5.287 H 2.347 L 1.827,1.445 C 1.794,1.224 1.769,1.034 1.752,0.876 1.735,0.717 1.727,0.582 1.727,0.469 c 0,-0.2 0.035,-0.34 0.104,-0.419 0.068,-0.079 0.196,-0.119 0.384,-0.119 0.079,0 0.169,0.011 0.269,0.034 0.1,0.023 0.201,0.054 0.301,0.091 0.1,0.038 0.197,0.082 0.294,0.134 0.095,0.053 0.181,0.108 0.256,0.166 L 3.473,-0.138 C 3.389,-0.238 3.273,-0.345 3.125,-0.46 2.978,-0.575 2.804,-0.681 2.606,-0.779 2.408,-0.877 2.188,-0.958 1.946,-1.023 1.704,-1.088 1.45,-1.12 1.183,-1.12 1.028,-1.12 0.88,-1.103 0.738,-1.067 0.597,-1.032 0.47,-0.97 0.36,-0.882 0.25,-0.795 0.162,-0.679 0.097,-0.535 0.032,-0.391 0,-0.213 0,0"
             style="fill:#e6e6e6;fill-opacity:1;fill-rule:nonzero;stroke:none"
             id="path94"
             inkscape:connector-curvature="0" /></g><g
           id="g96"
           transform="translate(136.3965,49.8018)"><path
             d="m 0,0 c 0.121,0 0.242,0.022 0.363,0.066 0.12,0.043 0.238,0.103 0.35,0.178 0.113,0.075 0.219,0.161 0.319,0.256 0.1,0.097 0.194,0.194 0.282,0.295 L 1.939,5.488 C 1.848,5.521 1.75,5.544 1.648,5.557 1.546,5.569 1.441,5.575 1.333,5.575 1.062,5.575 0.817,5.519 0.601,5.406 0.383,5.293 0.191,5.14 0.025,4.946 -0.142,4.752 -0.284,4.528 -0.401,4.274 -0.518,4.019 -0.613,3.751 -0.688,3.47 -0.764,3.188 -0.819,2.901 -0.854,2.609 -0.89,2.317 -0.908,2.038 -0.908,1.771 -0.908,1.212 -0.832,0.777 -0.679,0.466 -0.527,0.155 -0.301,0 0,0 m -0.595,-1.001 c -0.371,0 -0.689,0.069 -0.954,0.207 -0.265,0.137 -0.482,0.326 -0.651,0.565 -0.169,0.24 -0.292,0.523 -0.369,0.849 -0.077,0.325 -0.116,0.673 -0.116,1.045 0,0.366 0.041,0.739 0.122,1.116 0.082,0.378 0.202,0.742 0.36,1.092 0.159,0.351 0.356,0.679 0.592,0.986 0.235,0.307 0.508,0.574 0.819,0.804 0.311,0.229 0.657,0.41 1.039,0.541 0.381,0.131 0.8,0.197 1.254,0.197 0.234,0 0.476,-0.026 0.727,-0.078 C 2.478,6.271 2.697,6.215 2.884,6.157 L 3.742,6.401 2.928,0.432 C 2.907,0.261 2.921,0.139 2.969,0.066 c 0.048,-0.073 0.107,-0.11 0.178,-0.11 0.059,0 0.131,0.019 0.219,0.057 0.088,0.037 0.204,0.114 0.35,0.231 l 0.188,-0.4 C 3.871,-0.207 3.81,-0.278 3.72,-0.372 3.63,-0.466 3.516,-0.56 3.379,-0.654 3.241,-0.748 3.082,-0.829 2.9,-0.898 2.719,-0.967 2.521,-1.001 2.309,-1.001 c -0.292,0 -0.526,0.069 -0.701,0.207 -0.175,0.137 -0.256,0.35 -0.244,0.638 l -0.05,0.081 C 1.205,-0.196 1.082,-0.312 0.945,-0.422 0.807,-0.533 0.659,-0.631 0.5,-0.716 0.342,-0.802 0.171,-0.871 -0.013,-0.923 -0.196,-0.975 -0.39,-1.001 -0.595,-1.001"
             style="fill:#e6e6e6;fill-opacity:1;fill-rule:nonzero;stroke:none"
             id="path98"
             inkscape:connector-curvature="0" /></g><g
           id="g100"
           transform="translate(142.7178,49.6455)"><path
             d="m 0,0 c 0,0.066 0.005,0.148 0.016,0.244 0.01,0.096 0.02,0.175 0.028,0.237 L 1.151,8.553 0.351,8.822 0.476,9.342 2.622,9.604 2.935,9.436 1.733,0.588 C 1.712,0.442 1.717,0.326 1.746,0.241 1.775,0.155 1.832,0.112 1.915,0.112 c 0.029,0 0.063,0.005 0.1,0.013 C 2.053,0.133 2.094,0.15 2.14,0.175 2.186,0.2 2.241,0.235 2.306,0.281 2.371,0.327 2.447,0.386 2.534,0.457 L 2.716,0.056 C 2.683,0.01 2.621,-0.062 2.531,-0.163 2.441,-0.263 2.326,-0.363 2.184,-0.463 2.042,-0.563 1.877,-0.652 1.689,-0.729 1.502,-0.806 1.295,-0.845 1.07,-0.845 c -0.15,0 -0.29,0.016 -0.419,0.047 -0.13,0.031 -0.242,0.08 -0.338,0.147 -0.096,0.067 -0.172,0.153 -0.229,0.26 C 0.028,-0.285 0,-0.154 0,0"
             style="fill:#e6e6e6;fill-opacity:1;fill-rule:nonzero;stroke:none"
             id="path102"
             inkscape:connector-curvature="0" /></g><g
           id="g104"
           transform="translate(154.5352,48.8008)"><path
             d="m 0,0 c -0.363,0 -0.688,0.062 -0.976,0.187 -0.288,0.125 -0.532,0.31 -0.732,0.554 -0.2,0.244 -0.356,0.546 -0.466,0.905 -0.111,0.358 -0.168,0.771 -0.172,1.238 -0.005,0.338 0.029,0.684 0.1,1.039 0.071,0.355 0.177,0.7 0.319,1.035 0.142,0.336 0.32,0.652 0.535,0.949 0.215,0.296 0.467,0.554 0.757,0.776 0.29,0.221 0.615,0.396 0.976,0.525 0.361,0.129 0.761,0.194 1.199,0.194 0.12,0 0.248,-0.006 0.381,-0.019 C 2.055,7.371 2.188,7.354 2.321,7.333 2.455,7.312 2.583,7.285 2.706,7.252 2.829,7.218 2.941,7.181 3.041,7.139 L 2.59,5.475 C 2.586,5.479 2.569,5.483 2.537,5.487 2.506,5.492 2.472,5.496 2.434,5.5 2.396,5.504 2.362,5.507 2.331,5.509 2.3,5.511 2.282,5.515 2.278,5.519 2.198,5.61 2.111,5.71 2.015,5.819 1.919,5.927 1.821,6.029 1.721,6.123 1.621,6.216 1.522,6.293 1.427,6.354 1.331,6.415 1.241,6.445 1.158,6.445 0.924,6.445 0.701,6.364 0.488,6.204 0.275,6.043 0.089,5.815 -0.072,5.519 -0.232,5.223 -0.359,4.862 -0.451,4.436 -0.542,4.011 -0.584,3.533 -0.576,3.003 -0.571,2.657 -0.542,2.36 -0.488,2.112 -0.434,1.863 -0.358,1.66 -0.26,1.501 -0.162,1.343 -0.041,1.227 0.104,1.154 0.247,1.081 0.413,1.045 0.601,1.045 c 0.179,0 0.342,0.017 0.488,0.053 0.146,0.035 0.284,0.087 0.413,0.153 0.129,0.067 0.252,0.147 0.369,0.241 0.117,0.094 0.235,0.197 0.357,0.31 L 2.559,1.22 C 2.476,1.103 2.36,0.974 2.212,0.832 2.064,0.69 1.881,0.558 1.665,0.435 1.448,0.312 1.2,0.208 0.923,0.125 0.646,0.042 0.338,0 0,0"
             style="fill:#e6e6e6;fill-opacity:1;fill-rule:nonzero;stroke:none"
             id="path106"
             inkscape:connector-curvature="0" /></g><g
           id="g108"
           transform="translate(161.6846,57.4355)"><path
             d="m 0,0 c -0.121,0 -0.234,0.025 -0.341,0.075 -0.106,0.05 -0.2,0.117 -0.282,0.2 -0.081,0.084 -0.145,0.18 -0.19,0.288 -0.046,0.108 -0.069,0.221 -0.069,0.338 0.004,0.15 0.034,0.292 0.09,0.426 0.057,0.133 0.133,0.249 0.229,0.347 0.096,0.098 0.209,0.176 0.341,0.235 0.131,0.058 0.274,0.087 0.429,0.087 0.146,0 0.276,-0.024 0.391,-0.072 C 0.712,1.876 0.811,1.812 0.892,1.73 0.973,1.649 1.035,1.556 1.076,1.452 1.118,1.347 1.139,1.239 1.139,1.126 1.135,0.976 1.107,0.832 1.058,0.694 1.007,0.557 0.934,0.437 0.835,0.335 0.737,0.232 0.619,0.151 0.479,0.091 0.339,0.03 0.179,0 0,0 m -1.896,-7.747 c 0.029,0.251 0.069,0.555 0.119,0.911 0.05,0.357 0.108,0.759 0.172,1.208 0.065,0.448 0.135,0.939 0.21,1.473 0.075,0.534 0.154,1.101 0.237,1.702 l -0.807,0.363 0.1,0.532 2.234,0.326 0.332,-0.151 -0.832,-5.819 c -0.046,-0.317 0.014,-0.476 0.181,-0.476 0.071,0 0.152,0.026 0.244,0.075 0.092,0.051 0.217,0.142 0.375,0.276 L 0.851,-7.734 C 0.818,-7.78 0.754,-7.853 0.66,-7.953 c -0.094,-0.1 -0.214,-0.2 -0.36,-0.3 -0.146,-0.101 -0.316,-0.189 -0.509,-0.266 -0.194,-0.077 -0.41,-0.116 -0.648,-0.116 -0.363,0 -0.635,0.076 -0.817,0.228 -0.181,0.153 -0.255,0.373 -0.222,0.66"
             style="fill:#e6e6e6;fill-opacity:1;fill-rule:nonzero;stroke:none"
             id="path110"
             inkscape:connector-curvature="0" /></g><g
           id="g112"
           transform="translate(165.1108,49.9209)"><path
             d="M 0,0 C 0,0.021 0.001,0.049 0.003,0.084 0.005,0.12 0.01,0.18 0.019,0.266 0.027,0.351 0.04,0.467 0.057,0.613 0.073,0.759 0.098,0.955 0.131,1.201 l 0.533,4.086 h -0.751 l 0.144,0.62 0.763,0.294 c 0.083,0.079 0.167,0.182 0.25,0.309 0.083,0.128 0.166,0.266 0.247,0.416 0.081,0.151 0.159,0.307 0.232,0.47 0.073,0.163 0.14,0.319 0.203,0.469 h 0.92 L 2.465,6.232 H 3.917 L 3.779,5.287 H 2.347 L 1.827,1.445 C 1.794,1.224 1.769,1.034 1.752,0.876 1.735,0.717 1.727,0.582 1.727,0.469 c 0,-0.2 0.035,-0.34 0.104,-0.419 0.068,-0.079 0.196,-0.119 0.384,-0.119 0.079,0 0.169,0.011 0.269,0.034 0.1,0.023 0.201,0.054 0.301,0.091 0.1,0.038 0.197,0.082 0.294,0.134 0.095,0.053 0.181,0.108 0.256,0.166 L 3.473,-0.138 C 3.389,-0.238 3.273,-0.345 3.125,-0.46 2.978,-0.575 2.804,-0.681 2.606,-0.779 2.408,-0.877 2.188,-0.958 1.946,-1.023 1.704,-1.088 1.45,-1.12 1.183,-1.12 1.028,-1.12 0.88,-1.103 0.738,-1.067 0.597,-1.032 0.47,-0.97 0.36,-0.882 0.25,-0.795 0.162,-0.679 0.097,-0.535 0.032,-0.391 0,-0.213 0,0"
             style="fill:#e6e6e6;fill-opacity:1;fill-rule:nonzero;stroke:none"
             id="path114"
             inkscape:connector-curvature="0" /></g><g
           id="g116"
           transform="translate(170.7104,46.9893)"><path
             d="m 0,0 c 0.075,-0.036 0.162,-0.069 0.26,-0.1 0.098,-0.031 0.205,-0.058 0.322,-0.078 0.117,-0.021 0.238,-0.031 0.363,-0.031 0.167,0 0.34,0.03 0.519,0.09 0.18,0.06 0.361,0.16 0.545,0.297 C 2.192,0.316 2.376,0.497 2.56,0.72 2.743,0.943 2.924,1.217 3.104,1.542 H 2.14 L 0.908,7.843 C 0.878,7.973 0.844,8.063 0.804,8.116 0.765,8.167 0.711,8.194 0.645,8.194 0.595,8.194 0.54,8.185 0.479,8.166 0.418,8.147 0.34,8.098 0.244,8.019 L 0.063,8.457 c 0.029,0.041 0.088,0.104 0.178,0.187 0.09,0.084 0.202,0.167 0.338,0.251 0.135,0.083 0.289,0.157 0.46,0.222 0.171,0.064 0.35,0.097 0.538,0.097 0.171,0 0.317,-0.02 0.438,-0.06 C 2.136,9.114 2.237,9.058 2.318,8.985 2.4,8.912 2.462,8.823 2.506,8.716 2.55,8.61 2.583,8.49 2.603,8.356 2.628,8.202 2.659,7.999 2.694,7.746 2.729,7.494 2.769,7.216 2.813,6.914 2.856,6.612 2.9,6.297 2.944,5.969 2.988,5.642 3.031,5.328 3.072,5.027 3.114,4.727 3.153,4.451 3.188,4.199 3.224,3.946 3.254,3.743 3.279,3.588 L 3.436,2.149 4.086,3.482 C 4.224,3.795 4.358,4.102 4.49,4.402 4.621,4.702 4.738,5.001 4.84,5.3 4.942,5.598 5.023,5.895 5.084,6.191 5.145,6.488 5.175,6.79 5.175,7.099 5.175,7.253 5.16,7.383 5.131,7.49 5.102,7.596 5.069,7.696 5.034,7.79 4.999,7.884 4.966,7.981 4.937,8.081 4.908,8.181 4.894,8.302 4.894,8.444 4.894,8.682 4.964,8.87 5.106,9.007 5.248,9.145 5.45,9.214 5.713,9.214 5.879,9.214 6.026,9.18 6.151,9.113 6.276,9.047 6.379,8.957 6.461,8.844 6.542,8.732 6.604,8.601 6.645,8.45 6.687,8.3 6.708,8.14 6.708,7.968 6.708,7.622 6.672,7.291 6.602,6.974 6.531,6.657 6.439,6.345 6.327,6.038 6.213,5.731 6.084,5.429 5.938,5.131 5.792,4.833 5.644,4.533 5.495,4.233 5.293,3.82 5.084,3.412 4.865,3.01 4.646,2.607 4.432,2.229 4.224,1.874 4.015,1.52 3.817,1.198 3.629,0.91 3.442,0.623 3.283,0.385 3.154,0.197 2.837,-0.308 2.468,-0.678 2.046,-0.914 1.625,-1.149 1.154,-1.267 0.632,-1.267 c -0.1,0 -0.211,0.007 -0.331,0.022 -0.121,0.015 -0.238,0.032 -0.351,0.053 -0.113,0.021 -0.216,0.046 -0.309,0.075 -0.095,0.029 -0.166,0.056 -0.217,0.081 l 0.401,1.139 C -0.133,0.07 -0.075,0.036 0,0"
             style="fill:#e6e6e6;fill-opacity:1;fill-rule:nonzero;stroke:none"
             id="path118"
             inkscape:connector-curvature="0" /></g></g></g></g></svg>